<?xml version="1.0" encoding="UTF-8"?><svg id="Layer_8" xmlns="http://www.w3.org/2000/svg" width="375" height="375" viewBox="0 0 375 375"><defs><style>.cls-1{fill:none;stroke:#000;stroke-miterlimit:10;stroke-width:4px;}</style></defs><path class="cls-1" d="M212.4,246.53c7.64-7.17,22.27-22.9,29.42-47.52,3.53-12.16,9.64-33.2,0-54.99-11.01-24.87-37.51-41.34-63.54-41.19-6.04,.03-27.9,1.06-41.92,17.11-7.51,8.6-13.75,22.64-9.53,26.98,4.92,5.07,25.69-1.36,33.37-15.08,10.44-18.66-6.23-45.63-18.42-58.54-15.47-16.38-34.04-21.05-40.75-22.64-29.61-7.02-54.01,3.61-62.08,7.57"/><path class="cls-1" d="M39.13,41c-3.38,8.49-6.75,16.97-10.13,25.46,8.26-.73,16.53-1.45,24.79-2.18"/><g><path d="M207.29,284.38c-.56,3-.84,4.5-1.4,7.5-.87-.16-1.3-.24-2.16-.4,1.22-6.58,1.84-9.87,3.06-16.45,.87,.16,1.3,.24,2.17,.4-.57,3.05-.85,4.57-1.42,7.62,3.31-2.54,4.97-3.8,8.29-6.34,1.1,.21,1.65,.31,2.74,.52-3.64,2.72-5.45,4.09-9.08,6.82,2.43,3.85,3.64,5.78,6.05,9.63-1.13-.21-1.7-.32-2.83-.53-2.17-3.51-3.25-5.27-5.43-8.78Z"/><path d="M221.27,276.7c.87,.16,1.3,.25,2.17,.41-1.32,6.98-1.98,10.47-3.3,17.45-.87-.16-1.3-.25-2.16-.41,1.32-6.98,1.98-10.47,3.3-17.45Z"/><path d="M226.59,278.71c.16-.82,.92-1.34,1.76-1.18,.79,.15,1.31,.91,1.15,1.73-.16,.82-.92,1.34-1.71,1.19-.83-.16-1.36-.92-1.2-1.74Zm-.32,3.63c.87,.17,1.3,.25,2.17,.41-.98,5.17-1.48,7.75-2.46,12.92-.86-.16-1.3-.25-2.16-.41,.98-5.17,1.47-7.75,2.46-12.92Z"/><path d="M233,278.93c.87,.17,1.3,.25,2.17,.42-.79,4.1-1.18,6.15-1.96,10.25,2.45-1.91,3.67-2.86,6.12-4.76,1.21,.23,1.81,.35,3.02,.58-2.96,2.1-4.43,3.15-7.38,5.25,1.97,3.07,2.95,4.6,4.91,7.67-1.18-.23-1.77-.34-2.95-.57-1.6-2.68-2.41-4.01-4.01-6.69-.44,2.28-.66,3.42-1.09,5.7-.86-.17-1.3-.25-2.16-.41,1.34-6.98,2-10.47,3.34-17.45Z"/><path d="M250.81,288.9c-.68-.13-1.01-.2-1.69-.33,.14-.71,.21-1.06,.34-1.77,.68,.13,1.01,.2,1.69,.33,.07-.37,.11-.55,.18-.92,.56-2.87,2.24-3.89,5.58-3.24-.14,.72-.21,1.07-.35,1.79-1.95-.38-2.73,.2-3.06,1.87-.07,.37-.11,.55-.18,.92,1.09,.21,1.64,.32,2.74,.54-.14,.71-.21,1.06-.35,1.77-1.09-.21-1.64-.32-2.74-.54-.87,4.46-1.31,6.69-2.18,11.14-.86-.17-1.3-.25-2.16-.42,.87-4.46,1.31-6.69,2.17-11.14Z"/><path d="M261.67,302.83c-3.68-.73-5.97-3.87-5.16-7.97,.8-4.07,4.21-6.07,7.9-5.34,3.71,.73,6.08,3.87,5.27,7.95-.82,4.1-4.3,6.09-8,5.36Zm.37-1.88c2.26,.45,4.77-.65,5.42-3.92,.65-3.25-1.21-5.21-3.45-5.65-2.28-.45-4.65,.67-5.29,3.92-.65,3.27,1.07,5.2,3.33,5.65Z"/><path d="M273.38,304.94c-.86-.17-1.29-.26-2.16-.43,1.03-5.16,1.55-7.74,2.58-12.9,.87,.17,1.3,.26,2.16,.43-.17,.84-.25,1.26-.42,2.1,1.02-1.29,2.61-1.9,4.67-1.49-.18,.89-.27,1.33-.44,2.21-.23-.05-.34-.07-.57-.11-2.07-.42-3.82,.19-4.42,3.18-.56,2.81-.84,4.21-1.4,7.01Z"/><path d="M294.43,295.55c2.42,.49,3.84,2.06,4.32,3.55,.19-.94,.29-1.41,.48-2.35,.87,.18,1.31,.27,2.19,.45-1.06,5.15-1.59,7.73-2.65,12.88-.87-.18-1.31-.27-2.18-.45,.2-.96,.29-1.44,.49-2.4-1.07,1.23-3,2.1-5.39,1.62-3.46-.71-5.59-3.95-4.78-7.95,.82-4.02,4.03-6.07,7.52-5.35Zm.05,1.95c-2.38-.48-4.74,.82-5.36,3.86-.62,3.03,1.04,5.23,3.41,5.72,2.37,.48,4.77-.86,5.39-3.9,.61-2.99-1.06-5.19-3.44-5.68Z"/><path d="M305.19,299.82c-.67-.14-1.01-.21-1.69-.35,.15-.71,.22-1.06,.36-1.76,.67,.14,1.01,.21,1.69,.35,.27-1.3,.4-1.95,.67-3.24,.87,.18,1.3,.27,2.16,.45-.27,1.3-.4,1.95-.67,3.24,1.36,.28,2.04,.42,3.4,.7-.15,.71-.22,1.06-.37,1.76-1.36-.28-2.04-.42-3.39-.7-.63,3.04-.94,4.55-1.57,7.59-.26,1.27,.12,1.81,1.45,2.09,.64,.13,.95,.2,1.59,.33-.15,.72-.23,1.09-.38,1.81-.78-.16-1.17-.24-1.94-.4-2.3-.48-3.41-1.68-2.87-4.27,.63-3.04,.94-4.56,1.57-7.59Z"/><path d="M321.91,315.12c-3.03-.64-4.82-2.73-4.47-5.11,.89,.19,1.34,.28,2.23,.47-.14,1.27,.77,2.44,2.6,2.83,1.71,.36,2.83-.29,3.05-1.34,.6-2.87-7.43-2.81-6.42-7.6,.41-1.97,2.63-3.2,5.52-2.59,2.87,.6,4.45,2.53,4.06,5.07-.86-.18-1.29-.27-2.16-.45,.18-1.31-.62-2.46-2.35-2.82-1.59-.33-2.7,.22-2.91,1.25-.64,3.05,7.29,3.03,6.37,7.6-.42,2.1-2.65,3.32-5.52,2.71Z"/><path d="M335.28,317.95c-3.69-.79-5.87-3.94-5-8.03,.86-4.06,4.04-6.07,7.83-5.26,3.77,.8,5.67,3.96,4.92,7.48-.1,.47-.21,.84-.35,1.28-4.15-.89-6.22-1.33-10.37-2.21-.39,2.64,1.16,4.47,3.36,4.93,1.94,.41,3.38-.31,4.15-1.59,.93,.2,1.39,.3,2.32,.5-1.17,2.21-3.64,3.59-6.86,2.9Zm-2.58-8.47c3.28,.7,4.92,1.04,8.2,1.75,.56-2.51-1.04-4.3-3.27-4.77-2.11-.45-4.16,.56-4.93,3.02Z"/><path d="M200.76,307.45c.86,.16,1.29,.24,2.16,.4-.48,2.56-.72,3.84-1.19,6.39,1.11-1.21,2.86-1.64,4.68-1.3,2.89,.54,4.84,2.81,4.14,6.52-.57,3.05-.86,4.57-1.44,7.62-.85-.16-1.27-.24-2.13-.4,.55-2.92,.82-4.39,1.37-7.31,.5-2.64-.69-4.26-2.87-4.67-2.2-.41-3.97,.67-4.49,3.46-.53,2.86-.8,4.29-1.33,7.15-.86-.16-1.29-.24-2.15-.4,1.3-6.98,1.95-10.48,3.25-17.46Z"/><path d="M217.29,315.24c-1.19,6.29-1.79,9.44-2.98,15.73-.44,2.33-1.86,3.09-4.05,2.68-.5-.09-.75-.14-1.25-.24,.14-.73,.21-1.09,.34-1.82,.36,.07,.54,.1,.9,.17,1.18,.22,1.71-.12,1.92-1.25,1.19-6.27,1.78-9.41,2.97-15.68,.86,.16,1.29,.24,2.15,.41Zm-1.84-4.04c.16-.83,.92-1.34,1.72-1.19,.81,.15,1.32,.91,1.17,1.74-.16,.83-.92,1.34-1.72,1.19-.81-.15-1.32-.91-1.17-1.74Z"/><path d="M224.03,330.14c-3.68-.71-5.9-3.81-5.12-7.92,.78-4.08,3.89-6.15,7.68-5.43,3.76,.72,5.71,3.84,5.03,7.37-.09,.47-.19,.84-.32,1.28-4.14-.8-6.21-1.19-10.35-1.98-.33,2.65,1.23,4.44,3.43,4.86,1.94,.37,3.35-.38,4.09-1.68,.93,.18,1.39,.27,2.31,.45-1.12,2.23-3.55,3.67-6.75,3.05Zm-2.73-8.41c3.27,.62,4.91,.94,8.18,1.57,.51-2.52-1.12-4.27-3.34-4.7-2.1-.4-4.12,.65-4.84,3.13Z"/><path d="M253.21,328.01c.52-2.64-.63-4.26-2.76-4.68-2.17-.43-3.94,.67-4.48,3.45-.56,2.85-.84,4.27-1.39,7.11-.85-.17-1.27-.25-2.12-.42,.57-2.92,.86-4.38,1.43-7.3,.52-2.64-.64-4.26-2.77-4.67-2.17-.42-3.93,.68-4.47,3.46-.55,2.85-.83,4.27-1.38,7.12-.86-.17-1.29-.25-2.15-.42,1-5.17,1.5-7.75,2.5-12.91,.86,.17,1.29,.25,2.15,.42-.14,.74-.22,1.12-.36,1.86,1.12-1.2,2.8-1.63,4.5-1.3,2.13,.41,3.72,1.7,4.19,3.8,1.12-1.71,3.16-2.36,5.15-1.97,2.96,.58,4.89,2.87,4.15,6.57-.6,3.04-.9,4.56-1.5,7.61-.85-.17-1.27-.25-2.12-.42,.58-2.92,.86-4.38,1.44-7.3Z"/><path d="M277.51,332.86c.53-2.64-.61-4.26-2.74-4.69-2.17-.44-3.94,.65-4.5,3.43-.57,2.84-.86,4.26-1.43,7.11-.85-.17-1.27-.26-2.12-.43,.58-2.92,.88-4.38,1.46-7.3,.53-2.64-.62-4.26-2.75-4.69-2.17-.43-3.94,.66-4.49,3.44-.57,2.84-.85,4.27-1.41,7.11-.86-.17-1.29-.26-2.14-.43,1.02-5.16,1.54-7.74,2.56-12.9,.86,.17,1.29,.26,2.15,.43-.15,.74-.22,1.12-.37,1.86,1.12-1.2,2.8-1.62,4.5-1.28,2.13,.42,3.71,1.72,4.17,3.82,1.13-1.71,3.17-2.35,5.16-1.95,2.95,.59,4.87,2.89,4.12,6.59-.62,3.04-.92,4.56-1.54,7.6-.85-.17-1.27-.26-2.12-.43,.59-2.92,.88-4.38,1.47-7.29Z"/><path d="M287.2,342.64c-3.67-.75-5.86-3.89-5.02-7.98,.83-4.07,3.97-6.1,7.75-5.33,3.75,.77,5.67,3.91,4.94,7.43-.1,.47-.2,.84-.34,1.28-4.13-.85-6.19-1.27-10.32-2.11-.37,2.64,1.18,4.45,3.37,4.9,1.93,.39,3.36-.34,4.11-1.63,.92,.19,1.39,.28,2.31,.47-1.14,2.22-3.59,3.62-6.79,2.97Zm-2.62-8.45c3.26,.66,4.9,1,8.16,1.67,.54-2.51-1.06-4.28-3.28-4.74-2.1-.43-4.13,.6-4.88,3.07Z"/><path d="M300.78,345.44c-3.01-.62-4.79-2.71-4.45-5.09,.89,.18,1.33,.27,2.21,.46-.14,1.27,.77,2.44,2.58,2.81,1.7,.35,2.81-.3,3.03-1.36,.6-2.87-7.38-2.78-6.39-7.57,.41-1.97,2.61-3.21,5.48-2.62,2.85,.59,4.42,2.51,4.04,5.06-.86-.18-1.29-.27-2.14-.45,.17-1.31-.62-2.46-2.34-2.81-1.58-.33-2.68,.23-2.89,1.26-.63,3.06,7.25,3,6.34,7.57-.41,2.1-2.63,3.32-5.48,2.73Z"/><path d="M311.62,330.34c.17-.82,.94-1.32,1.77-1.15,.78,.16,1.28,.93,1.11,1.75-.17,.82-.94,1.32-1.72,1.16-.83-.17-1.33-.94-1.16-1.76Zm-.39,3.62c.86,.18,1.29,.27,2.15,.45-1.08,5.15-1.62,7.72-2.69,12.87-.86-.18-1.28-.27-2.14-.45,1.08-5.15,1.61-7.73,2.69-12.88Z"/><path d="M322.43,336.09c2.03,.43,3.67,1.86,4.25,3.53,.58-2.72,.87-4.09,1.44-6.81,.87,.18,1.3,.28,2.17,.46-1.48,6.95-2.22,10.42-3.69,17.37-.86-.18-1.3-.28-2.16-.46,.21-.97,.31-1.45,.51-2.42-1.08,1.27-3,2.11-5.35,1.61-3.46-.73-5.55-3.99-4.71-7.98,.84-4.02,4.05-6.04,7.54-5.3Zm0,1.94c-2.36-.5-4.72,.8-5.36,3.82-.64,3.03,.99,5.24,3.34,5.73,2.35,.5,4.75-.83,5.39-3.86,.63-2.98-1.02-5.2-3.37-5.69Z"/><path d="M335.74,352.81c-3.67-.79-5.82-3.94-4.95-8.03,.87-4.06,4.03-6.06,7.8-5.25,3.74,.8,5.63,3.96,4.87,7.48-.1,.47-.21,.84-.35,1.28-4.12-.89-6.18-1.33-10.3-2.21-.39,2.64,1.14,4.46,3.32,4.93,1.93,.41,3.36-.31,4.13-1.59,.92,.2,1.38,.3,2.3,.5-1.16,2.2-3.63,3.59-6.82,2.9Zm-2.54-8.47c3.26,.7,4.89,1.05,8.14,1.75,.56-2.5-1.02-4.29-3.24-4.77-2.1-.45-4.13,.56-4.91,3.02Z"/><path d="M355.79,349.32c.57-2.63-.57-4.28-2.73-4.75-2.19-.48-3.99,.56-4.59,3.33-.62,2.84-.92,4.26-1.54,7.11-.85-.19-1.28-.28-2.14-.46,1.11-5.14,1.67-7.71,2.78-12.86,.86,.19,1.29,.28,2.14,.46-.16,.73-.24,1.1-.4,1.83,1.14-1.15,2.85-1.54,4.59-1.16,2.99,.65,4.87,2.98,4.07,6.66-.66,3.03-.99,4.54-1.66,7.57-.85-.18-1.27-.28-2.11-.46,.63-2.91,.95-4.36,1.59-7.27Z"/></g></svg>