<?xml version="1.0" encoding="UTF-8"?><svg xmlns="http://www.w3.org/2000/svg" width="996.13" height="612" viewBox="0 0 996.13 612"><defs><style>.cls-1{fill:#ecb989;}.cls-2{fill:#e48525;}.cls-3{fill:#efc8a3;}.cls-4{fill:#335c32;}.cls-5{fill:#231f20;}.cls-6{fill:#465b3c;}.cls-7{fill:#3a693a;}.cls-8{fill:#2e3192;stroke:#2e3192;stroke-miterlimit:10;}</style></defs><g id="Layer_5"><rect class="cls-3" x="206.46" y="-132.5" width="565.55" height="905.9"/><path class="cls-4" d="M672.32,338.27c-.99,8.19-9.4,6.31-18.01,10.8-8.61,4.49-17.88,5.01-17.08-7.91,.8-12.92,10.8-13.19,16.81-13.36s19.27,2.29,18.28,10.47Z"/><path class="cls-6" d="M673.15,335.78c-.07,7.74-12.65,11.09-18.8,15.01s-15.97,3.36-17-5.16c-1.03-8.53,7.53-16.01,13.77-18.06,6.24-2.06,22.1,.48,22.03,8.22Z"/><ellipse class="cls-8" cx="29.47" cy="586.33" rx="67.73" ry="81.75"/></g><g id="Layer_4"><path class="cls-1" d="M1193.25,324.68c3.23,171.57-91.3,384.85-285.8,388.08s-289.32-210.46-289.81-378.52S689.23-52.51,890.32-52.01c201.09,.5,299.7,205.12,302.93,376.69Z"/><path class="cls-1" d="M239.77,489.38c-34.82,75.42-56.82,248.7-177.05,240.65-120.23-8.05-144.86-167.88-141.5-258.2S-1.92,236.53,97.15,240.59c99.07,4.05,177.44,173.38,142.62,248.79Z"/><path class="cls-1" d="M221.55,585.03c3.97,13.71,28.68,51.26,4.33,55.02-24.35,3.77-38.04-27.8-41.87-46.62-3.83-18.82-17.35-46.79,5.04-64.24,22.39-17.45,28.54,42.13,32.51,55.84Z"/><path class="cls-7" d="M736.43,341.93c-1.26,6.23-38.58-.1-42.09-2.74-3.51-2.65-24.13-5.56-21.81-11.37,2.32-5.82,23.01-4.58,29.06-1.01s36.11,8.89,34.85,15.12Z"/><path class="cls-7" d="M700.41,334.81c11.25,6.95-10.78,9.27-18.26,8.36-7.48-.91-20.2-.75-20.28-7.79s11.02-8.3,18.05-6.66,9.24-.86,20.49,6.09Z"/></g><g id="Layer_1"><path class="cls-2" d="M358.73,101.24c17.28,91.51-12.89,348.95-90.95,363.02C189.71,478.32,15.65,356.29-23.92,240.71-63.49,125.13-68.56-69.59,68.1-123.04S341.45,9.73,358.73,101.24Z"/><path class="cls-2" d="M383.91,88.22c3.12,9.76-11.23,72.08-24.56,68.5-13.33-3.58-.71-42.21-2.33-52.51-1.62-10.3-19.32-29.49-10.61-37.98,8.72-8.48,34.37,12.22,37.5,21.98Z"/><path class="cls-2" d="M379.78,213.1c1.47,9.18-13.5,42.26-22.18,39.95-8.67-2.3-.86-41.19-1.46-48.73s-9.86-57.44,.59-58.04c10.44-.6,21.59,57.64,23.05,66.82Z"/><path class="cls-2" d="M1075.76,189.95c-26.47,11.88-49.32,30.31-75.95,41.88-39.91-86.88-91.74-176.29-146.86-254.42,23.19-17.92,51.04-28.2,74.41-45.84,52.86,83.84,104.52,169.45,148.39,258.39Z"/><rect class="cls-2" x="982.58" y="28.45" width="11.42" height="21.81" transform="translate(218.12 659.92) rotate(-41.14)"/><path class="cls-2" d="M717.16,591.95c2.09-28.26-44.64-36.26-65.78-33.75-21.15,2.51-89.17,22.27-84,50.96s61,19.53,80.7,17.49,67-6.42,69.09-34.69Z"/><path class="cls-2" d="M575.79,383.59c-7.86,5.91-27.67-3.1-37.06-2.83-9.38,.27-46.64,.06-38.53-10.46,8.11-10.52,28.28-8.22,40.62-8.53,12.34-.31,42.82,15.92,34.97,21.83Z"/><path class="cls-2" d="M382.38,325.98c-10.66,38.28-51.8,63.27-3.74,105.82,48.06,42.55,77.12-42.49,86.59-83.53,9.46-41.04,112.46-35.97,40.62-90.96-71.84-54.99-112.81,30.39-123.46,68.66Z"/></g><g id="Layer_3"><path class="cls-8" d="M202.43,231.44c-30.18,11.14-63.35,12.99-95.5,13.98,2.95-14.26,14.75,6.79-.57,7.24,16.12-49.08,46.61-48.93,88.64-44.86-.94,10.41,9.75,9.41,7.44,23.64Z"/><path class="cls-8" d="M841.67,194.83c1.52,25.97-19.64,47.58-49.79,50.78-30.15,3.2-63.16-10.95-75.36-49.94-12.2-38.99,17.69-51.14,48.59-52.11,30.9-.97,75.04,25.3,76.56,51.27Z"/><path class="cls-8" d="M496.42,523.37c-14.58,25.21-26.57,43.12-53.84,31.59-27.27-11.53-49.9-12.85-50.39-35.8s28.83-35.3,55.16-23.47c26.33,11.83,63.66,2.47,49.07,27.68Z"/></g><g id="Layer_6"><ellipse class="cls-3" cx="678.09" cy="349.69" rx="25.67" ry="6.42" transform="translate(-50.66 123.84) rotate(-10.06)"/></g><g id="Layer_7"><path class="cls-7" d="M669.6,332.48c.86,8.27-8.37,11.39-13.81,16.32-5.44,4.93-14.81,6.73-17.81-1.35-3-8.08,3.82-17.62,10.31-19.16,6.5-1.53,20.45-4.09,21.3,4.18Z"/><ellipse class="cls-1" cx="287.48" cy="244.92" rx="24.77" ry="7.26" transform="translate(-47.51 70.53) rotate(-12.93)"/><path class="cls-7" d="M195.35,272.09c0,6.35-24.2,10.21-29.54,10.62-5.33,.41-35.57-6.36-35.01-12.29,.56-5.93,29.03-3.31,34.24-4.07,5.21-.75,30.3-.61,30.3,5.74Z"/><path class="cls-7" d="M584.18,421.91c-3.9,7.91-35.01,10.33-44.66,7.27s-41.12-3.14-37.73-14.51c3.4-11.37,23.9-12.36,42.76-8.29s43.52,7.62,39.62,15.53Z"/><path class="cls-8" d="M25.24,503.66c39.68-10.44,60.37,1.51,80.59,34.3,20.22,32.79,12.47,82.03-27.5,103.38-39.97,21.35-73.57,23.46-107.86-15.15-34.29-38.61,15.1-112.09,54.77-122.53Z"/></g><g id="les_femmes"><path class="cls-5" d="M5.82,515.87c20.53,1.94,40.41-8.33,54.35-22.84,15.31-15.93,23.83-37.06,30.17-57.88,3.95-12.98,7.58-26.16,9.37-39.63,.18-1.34-1.28-2.5-2.5-2.5-1.5,0-2.32,1.16-2.5,2.5-1.54,11.59-4.68,22.94-7.95,34.14-3,10.27-6.37,20.47-10.82,30.21-4.33,9.48-9.65,18.66-16.5,26.55-6.38,7.35-14.02,13.58-22.68,18.05-9.53,4.93-20.21,7.41-30.95,6.4-1.35-.13-2.5,1.24-2.5,2.5,0,1.46,1.15,2.37,2.5,2.5h0Z"/><path class="cls-5" d="M98.95,394.09c-1.92-11.19-8.96-20.51-16.13-28.95-8.39-9.89-16.97-19.62-25.45-29.42-6.86-7.93-15.68-18.07-12.67-29.46,1.02-3.87,4.42-8.63,9-8.04s6.97,6.08,8.36,9.82c4.37,11.75,3.97,25.19-1.33,36.58-.57,1.22-.34,2.69,.9,3.42,1.08,.63,2.85,.33,3.42-.9,5.27-11.32,6.45-24.33,3.14-36.39-1.44-5.25-3.64-11.3-8.01-14.84-2.15-1.74-4.79-2.88-7.6-2.71s-5.58,1.48-7.76,3.4c-4.52,4.01-6.14,10.48-5.53,16.32,.66,6.4,3.46,12.18,7.21,17.33s8.5,10.33,12.86,15.37c4.66,5.38,9.31,10.76,13.97,16.13,8.59,9.92,18.5,20.23,20.81,33.66,.23,1.33,1.87,2.08,3.08,1.75,1.41-.39,1.98-1.74,1.75-3.08h0Z"/><path class="cls-5" d="M61.44,342.7c-11.69-.31-22.33-7.57-28.86-16.97-7.5-10.8-10.58-24.11-11.7-37.04-.54-6.24-.6-12.64,.84-18.77,1.31-5.58,3.9-11.44,8.64-14.94,2.14-1.58,4.74-2.66,7.44-2.37s4.88,1.81,6.75,3.55c2.22,2.07,4.07,4.49,5.89,6.9,2.15,2.84,4.23,5.72,6.25,8.65,4.54,6.58,8.67,13.39,12.62,20.34,1.61,2.83,3.81,5.96,7.24,6.59s6.75-.81,7.83-4.16c.99-3.07-3.83-4.38-4.82-1.33-.04,.13-.12,.26-.42,.42-.32,.17-.66,.22-1.02,.22-.95,.01-1.77-.53-2.57-1.39-.96-1.03-1.61-2.32-2.3-3.54-.91-1.62-1.83-3.23-2.77-4.83-3.69-6.26-7.65-12.36-11.88-18.27-2.14-3-4.34-5.96-6.64-8.85-1.97-2.47-4.12-4.79-6.74-6.6-5.37-3.72-12.13-3.45-17.39,.35-11.06,7.99-12.95,23.33-12.12,35.95,.89,13.63,3.83,27.8,11.14,39.52,7.46,11.95,20.14,21.19,34.58,21.58,3.22,.09,3.22-4.91,0-5h0Z"/><path class="cls-5" d="M84.81,294.96c6.37-21.62-2.72-43.38-10-63.5-6.51-17.98-12.65-38.71-2.89-56.7,3.6-6.64,9.17-12.75,16.4-15.42,1.71-.63,3.51-1.12,5.32-1.35,2.42-.3,4.87-.07,7.29-.42,4.76-.68,7.96-4.26,8.66-8.94,.75-5.1-1.46-9.55-3.22-14.18-1.47-3.87-2.08-7.83-1.72-11.96,.68-7.81,4.83-15.18,10.41-20.56,13.67-13.18,34.9-11.85,50.93-4.01,2.17,1.06,4.27,2.24,6.31,3.52,2.74,1.71,5.25-2.61,2.52-4.32-16.28-10.18-38.83-14.68-56.13-4.25-7.47,4.51-13.35,11.46-16.63,19.52-1.58,3.89-2.48,8.09-2.53,12.29-.05,4.61,1.09,8.89,2.82,13.13,1.52,3.73,3.71,8.46,1.55,12.39-.94,1.72-2.55,2.41-4.47,2.53-2.39,.16-4.76,.08-7.14,.43-8.23,1.22-15.46,6.27-20.52,12.73-5.4,6.9-8.71,15.21-9.71,23.9-1.25,10.81,1.07,21.87,4.24,32.16,6.4,20.75,17.83,41.5,15.29,63.89-.3,2.63-.88,5.23-1.63,7.77-.91,3.09,3.91,4.41,4.82,1.33h0Z"/><path class="cls-5" d="M172.68,98.05c-8,13.13-15.55,26.52-22.63,40.17-3.5,6.75-6.89,13.57-10.15,20.43-2.7,5.67-7.9,14.3-1.51,19.47,2.94,2.38,6.46,1.63,9.31-.49s5.8-4.43,8.78-6.54c6.03-4.26,12.27-8.23,18.62-12.01s12.83-7.38,19.35-10.9c3.26-1.76,6.52-3.5,9.79-5.23,2.79-1.48,5.54-3.06,8.58-3.94,2.24-.65,5.01-1.08,7.03,.4,2.28,1.68,2.56,4.9,2.35,7.5-.47,5.86-4.29,10.97-7.99,15.27-4.52,5.26-9.29,10.22-13.34,15.88-2.07,2.89-3.99,5.88-5.75,8.96s-3.54,6.3-4.68,9.69c-2.41,7.19,.46,13.8,3.78,20.14s5.65,12.33,6.77,19.14c2.03,12.31-.76,25.41-9.26,34.79-3.75,4.14-8.42,7.54-13.71,9.42s-11.49,2.22-17.23,1.06c-12.51-2.51-23.33-10.01-34.55-15.66-2.94-1.48-5.94-2.85-9-4.07-1.26-.5-2.75,.55-3.08,1.75-.39,1.42,.49,2.57,1.75,3.08,12.25,4.87,23.05,12.74,35.42,17.36,5.82,2.18,12.07,3.53,18.31,3.19s12.18-2.28,17.39-5.63c10.78-6.91,17.53-18.47,19.16-31.07,.91-7,.26-14.19-1.57-21-.91-3.39-2.14-6.7-3.59-9.89s-3.2-6.11-4.63-9.25c-1.28-2.82-2.25-5.95-1.88-9.08,.42-3.52,2.36-6.84,4.03-9.89,3.38-6.17,7.39-12,11.98-17.33,4.27-4.95,9.04-9.53,12.53-15.1,3.24-5.18,5.6-12.2,3.35-18.22-1.19-3.18-3.56-5.7-6.9-6.62-3-.82-6.26-.28-9.14,.71-3.19,1.09-6.13,2.74-9.09,4.31-3.41,1.81-6.81,3.62-10.2,5.46-13.13,7.11-26.12,14.57-38.28,23.27-1.44,1.03-2.87,2.08-4.28,3.14s-2.82,2.31-4.35,3.28c-.83,.53-1.7,.94-2.53,.38-.9-.61-1.31-1.79-1.35-2.82-.07-1.66,.62-3.34,1.29-4.82,.84-1.87,1.73-3.71,2.61-5.56,1.63-3.43,3.3-6.85,4.99-10.26,6.84-13.77,14.16-27.29,21.93-40.55,1.92-3.28,3.88-6.54,5.86-9.79,1.68-2.76-2.64-5.27-4.32-2.52h0Z"/><path class="cls-5" d="M118.19,266c9.47,2.73,19.3,3.89,29.15,3.63s19.86-1.69,29.82-2.12c5.01-.22,10.5-.53,15.18,1.6,1.23,.56,2.69,.35,3.42-.9,.63-1.07,.34-2.86-.9-3.42-4.39-2-9.1-2.45-13.88-2.39-5.04,.06-10.06,.48-15.08,.92-10.04,.88-20.11,1.91-30.18,.98-5.49-.5-10.91-1.58-16.21-3.11-3.1-.89-4.42,3.93-1.33,4.82h0Z"/><path class="cls-5" d="M200.12,229.76c-26.55,4.24-55.76-11.05-80.41,4.52-6.29,3.97-11.52,9.5-15.26,15.92l4.57,1.93c3.72-11.9,11.09-22.47,20.8-30.28,10.29-8.28,23.29-12.89,36.46-13.32,7.75-.26,15.44,.9,22.77,3.44,1.28,.44,2.73-.5,3.08-1.75,.38-1.38-.47-2.63-1.75-3.08-13.95-4.83-29.55-4.86-43.54-.15-13.07,4.4-24.35,12.86-32.54,23.91-4.45,6-7.85,12.76-10.08,19.89-.85,2.73,3.15,4.36,4.57,1.93,3.1-5.34,7.33-10.03,12.47-13.48s11.23-5.62,17.47-6.55c13.15-1.95,26.59,.96,39.67,2.19,7.7,.73,15.41,.92,23.06-.31,1.33-.21,2.08-1.88,1.75-3.08-.39-1.42-1.74-1.96-3.08-1.75h0Z"/><path class="cls-5" d="M173.35,100.68c11.67-5.47,23.35-10.94,35.02-16.4,4.42-2.07,9.45-5.18,14.52-4.92s5.64,5.04,6.26,8.99c.67,4.27,1.76,8.68,5.77,11.04,4.26,2.51,9.38,1.4,14.04,1.32,9.12-.14,15.92,6.4,20.76,13.49,5.91,8.66,10.11,18.55,14.57,28,5.07,10.73,9.89,21.59,14.05,32.71s7.6,22.26,9.98,33.77c1.18,5.69,2.09,11.44,2.65,17.22s.67,11.82,1.06,17.72,1.05,11.47,2.85,16.92,4.72,10.14,7.53,14.99,5.21,10.26,6.6,15.96,1.98,11.29,2.22,17.02c1.03,24.17-3.21,48.3-9.72,71.5-3.29,11.73-7.18,23.27-11.38,34.7-3.61,9.82-7.02,20.04-12.66,28.92-2.51,3.95-5.58,7.67-9.38,10.44-4.35,3.17-9.41,4.94-14.67,5.91-11.48,2.1-23.82,1.16-35.26-.72-24.05-3.95-46.94-13.19-69.49-22.12-11.25-4.45-22.31-9.34-32.59-15.77-9.96-6.23-19.18-13.54-28.12-21.15-4.34-3.7-8.61-7.47-12.88-11.24-2.4-2.12-5.95,1.4-3.54,3.54,18.2,16.07,36.67,31.96,58.86,42.28,11.35,5.28,23.13,9.67,34.82,14.11s23.85,8.75,36.15,11.9c12,3.07,24.36,5.1,36.77,5.22,11.19,.1,23.4-.94,32.7-7.81,8.21-6.06,13.27-15.1,17.2-24.33,4.66-10.96,8.66-22.26,12.43-33.56,7.93-23.74,14.03-48.29,15.54-73.35,.72-12,.73-24.41-2.02-36.18-1.35-5.76-3.53-11.21-6.43-16.36s-6.17-9.98-7.97-15.58c-3.69-11.46-2.56-23.93-3.92-35.76s-4.05-23.79-7.63-35.32c-7.12-22.91-17.36-45.04-28.3-66.35-4.26-8.3-9.57-16.93-17.63-22.01-3.85-2.43-8.31-3.76-12.87-3.73-4.02,.03-10.56,1.85-13.36-2.07-2.43-3.4-1.73-8.43-3.2-12.25-1.78-4.61-5.93-7.26-10.87-7.02-5.47,.26-10.43,3-15.28,5.27l-18.03,8.45c-5.89,2.76-11.79,5.52-17.68,8.28-2.91,1.36-.38,5.68,2.52,4.32h0Z"/><path class="cls-5" d="M295.15,172.15c-5.84,4.84-11.69,9.71-16.78,15.35-5.39,5.98-9.42,12.65-12.38,20.12s-5.53,15.46-7.2,23.39-1.9,16.4-.5,24.64c2.76,16.19,11.01,30.77,20.1,44.2,2.29,3.39,4.65,6.73,7,10.07,2.15,3.04,4.81,6.11,6.28,9.56,.62,1.45,.95,3.1,.22,4.56-.68,1.36-2,2.36-3.18,3.26-3.45,2.63-6.93,5.22-10.39,7.82s-6.96,5.24-10.43,7.85c-.65,.49-1.53,1.45-2.31,1.68-.02,0-.16,.08-.03,.06,.17-.03-.32-.09-.36-.1-.39-.17-.76-.4-1.13-.6-1.61-.9-3.19-1.86-4.76-2.83-6.17-3.79-12.51-7.88-19.84-8.82-1.7-.22-3.39-.25-5.1-.07-1.09,.12-2.13,.69-2.41,1.84-.9,3.64,.56,7.4,3.28,9.9,2.88,2.64,6.7,3.71,10.4,4.62l-1.1-4.18c-5.33,4.79-14.64,5.14-19.66-.29-4.48-4.84-4.24-13.76,1.25-17.72,3.63-2.62,8.2-3.5,11.84-6.09,3.38-2.41,5.89-5.72,7.45-9.56s1.92-7.76,1.1-11.64-3.4-9.11-7.89-9.21c-5.66-.13-7.83,7.01-8.78,11.39-1.26,5.85-1.15,11.89,.3,17.69,.78,3.12,5.6,1.8,4.82-1.33-1.17-4.69-1.37-9.62-.44-14.37,.42-2.12,.91-4.46,1.97-6.36,.37-.67,.81-1.37,1.46-1.8,.42-.28,.58-.33,1.08,.02,1.28,.92,2.01,2.93,2.42,4.38,.45,1.63,.55,3.17,.42,4.89-.25,3.21-1.68,6.61-3.81,9.1-2.66,3.11-6.25,4.51-9.91,6.13-3.92,1.74-7.54,4.11-9.52,8.06-3.41,6.82-2.07,16.08,3.89,21.11,7.31,6.16,18.55,5.44,25.54-.85,1.39-1.25,.67-3.74-1.1-4.18-2.64-.65-5.48-1.27-7.7-2.93-1.64-1.22-3.01-3.34-2.48-5.44l-2.41,1.84c7.15-.77,13.5,2.77,19.41,6.36,3.12,1.9,6.26,4.28,9.68,5.62,2.13,.83,4.02,.24,5.78-1.08s3.54-2.67,5.31-4c3.48-2.62,6.96-5.24,10.43-7.85,1.77-1.33,3.54-2.67,5.31-4,1.52-1.15,3.14-2.26,4.41-3.69,6.32-7.14-.73-15.2-5-21.24-9.41-13.32-19.01-26.97-24.03-42.65-2.46-7.69-3.79-15.73-3.29-23.81s3.07-16.32,5.64-24.17,5.42-14.88,10.2-21.31c4.52-6.07,10.25-11.19,16-16.06,1.48-1.25,2.96-2.48,4.45-3.72,1.04-.86,.89-2.64,0-3.54-1.03-1.03-2.49-.86-3.54,0h0Z"/><path class="cls-5" d="M265.59,249.51c6.44-1.62,11.52-6.37,17.73-8.62,5.89-2.13,12.66-3.22,18.88-2.01,1.42,.28,2.85,.66,4.18,1.24,.63,.28,1.25,.61,1.84,.98,.22,.14,.49,.38,.72,.49,.68,.33,.02,.38,.23,.07-.65,.97-1.85,1.81-2.75,2.52-1.11,.87-2.29,1.64-3.51,2.35-5.35,3.09-11.52,4.6-17.66,4.82-8.05,.28-15.95-1.44-23.58-3.88-3.07-.98-4.39,3.84-1.33,4.82,14.48,4.62,30.95,6.52,44.74-1.24,2.89-1.63,6.2-3.78,8.15-6.53,1.16-1.64,1.28-3.75,.14-5.43-1-1.48-2.68-2.45-4.27-3.2-6.83-3.22-14.99-2.93-22.2-1.27-4.16,.96-8.2,2.55-11.92,4.65-3.49,1.97-6.77,4.42-10.7,5.41-3.12,.79-1.8,5.61,1.33,4.82h0Z"/><path class="cls-5" d="M225.97,404.49c4.86-8.23,10.96-15.57,17.55-22.47,3.3-3.46,6.72-6.81,10.17-10.12,1.73-1.66,3.45-3.32,5.2-4.95,1.56-1.47,3.17-2.88,5.08-3.88,2.87-1.49,7.4-1.16,7.96,2.39,.21,1.35,1.89,2.06,3.08,1.75,2.99-.78,4.71-3.29,6.49-5.6,.18-.24,.56-.71,.95-1.13,.58-.61,.52-.62,1.17-.93-.39,.18,.1-.03,.25-.05-.56,.08,.21,.01,.26,.03,.9,.25,1.69,.86,2.47,1.35,8.2,5.1,16.39,10.21,24.59,15.31l-.51-3.93c-12.64,9.86-25.62,20.01-40.82,25.61-7.27,2.68-15.16,4.51-22.95,4.22-.5-.02-1-.18-1.41-.2-.05,0-.39-.24-.22-.04,.02,.02,0,.1,0,.11,.05,.17,.13-.36,.2-.5,.63-1.28,1.86-2.33,3.02-3.11,2.92-1.96,6.35-3.13,9.6-4.42,7.71-3.07,15.52-6,23.6-7.95,3.91-.94,7.87-1.66,11.88-1.99,3.03-.25,6.1-.34,9.07,.4,2.41,.6,4.77,1.71,5.92,3.89,1.6,3.02,.14,6.72-1.43,9.47-3.28,5.73-8.44,10.05-14.22,13.12-13.2,7-29.59,7.87-43.93,4.38-1.94-.47-3.85-1.03-5.74-1.66-3.06-1.02-4.37,3.81-1.33,4.82,16.29,5.41,35.02,5.27,50.78-1.88,6.86-3.11,13.04-7.81,17.35-14.03,2.35-3.4,4.39-7.57,4.19-11.8-.18-3.81-2.18-7.08-5.38-9.12-6.4-4.07-15.09-2.9-22.14-1.72-9.03,1.51-17.74,4.49-26.25,7.79-3.96,1.53-8.02,2.99-11.83,4.87-3.3,1.63-7.48,4.47-8.21,8.37-.41,2.18,.56,4.29,2.55,5.31,1.82,.92,3.9,.92,5.89,.88,4.39-.08,8.8-.66,13.08-1.64,17.66-4.01,32.76-14.57,46.86-25.45,1.81-1.4,3.61-2.8,5.42-4.21,1.33-1.03,.72-3.17-.51-3.93-8.59-5.35-17.08-10.9-25.79-16.06-3.28-1.95-6.62-1.52-9.19,1.32-.93,1.03-1.79,2.31-2.51,3.18-.45,.55-.92,1.09-1.46,1.54,.26-.21-.44,.28-.53,.33-.27,.13-.3,.15-.08,.05-.16,.06-.32,.1-.48,.14l3.08,1.75c-.71-4.44-5.46-7.08-9.67-6.97-5.11,.13-9.13,3.77-12.62,7.09-7.72,7.34-15.44,14.71-22.26,22.91-3.88,4.66-7.47,9.57-10.55,14.8-1.64,2.78,2.68,5.3,4.32,2.52h0Z"/><path class="cls-5" d="M268.37,346.48c.41,3.65,.57,7.32,.48,10.99-.03,1.31,1.17,2.56,2.5,2.5s2.47-1.1,2.5-2.5c.09-3.67-.07-7.34-.48-10.99-.08-.68-.23-1.26-.73-1.77-.43-.43-1.15-.76-1.77-.73-1.23,.06-2.66,1.11-2.5,2.5h0Z"/><path class="cls-5" d="M243.06,464.26c-7.4,19.57-13.85,39.5-19.28,59.71-2.7,10.04-5.38,20.17-7.29,30.4-.96,5.15-1.64,10.41-1.46,15.65,.16,4.85,1.07,9.66,2.63,14.25,3.46,10.16,9.54,19.1,15.61,27.85,.77,1.11,2.19,1.62,3.42,.9,1.1-.64,1.67-2.31,.9-3.42-5.2-7.49-10.57-15.14-13.99-23.65-1.67-4.17-2.96-8.58-3.39-13.07-.48-5.02-.1-10.09,.73-15.05,1.67-10.1,4.37-20.09,6.98-29.98s5.49-19.78,8.59-29.56c3.49-11,7.29-21.91,11.37-32.71,.48-1.26-.53-2.74-1.75-3.08-1.4-.39-2.6,.48-3.08,1.75h0Z"/><path class="cls-5" d="M11.73,516.56c16.16,7.69,32.39,15.93,46.22,27.44,13.72,11.43,23.8,25.99,32.08,41.69,4.7,8.92,8.87,18.11,13.02,27.3,.56,1.23,2.34,1.53,3.42,.9,1.27-.74,1.45-2.19,.9-3.42-7.41-16.42-14.91-32.98-25.41-47.71-5.26-7.37-11.22-14.21-18.02-20.19s-14.49-11.35-22.38-16.06c-8.82-5.26-18.03-9.84-27.3-14.25-1.22-.58-2.7-.34-3.42,.9-.64,1.09-.33,2.84,.9,3.42h0Z"/><path class="cls-5" d="M317.27,241.24c8.38-4.02,10.39-13.98,13.18-21.94,3.02-8.64,8.99-16.13,16.92-20.76,3.82-2.23,8.11-3.81,12.52-4.31,5.89-.67,11.76,.51,17.61,.95,10.21,.77,19.87-1.97,29.06-6.22s17.47-9.54,26.41-13.91c9.49-4.63,19.49-7.56,30.14-7.21,5.73,.19,11.39,1.27,16.8,3.17,4.46,1.57,9.77,3.6,11.06,8.65,.73,2.84,.71,5.92,.84,8.84,.13,3.12,.18,6.25,.15,9.37-.07,6.25-.48,12.49-1.23,18.69-.56,4.64-1.05,9.72-5.89,11.78-4.16,1.76-8.97,1.46-13.38,1.78-9.65,.7-19.18,2.83-28.21,6.3-18.07,6.94-34.04,18.8-45.72,34.25-13.03,17.22-18.78,38.27-23.25,59.06-2.34,10.89-4.42,21.85-7.28,32.63-1.4,5.3-2.82,10.77-5.07,15.79-1.08,2.41-2.39,4.79-4.15,6.78s-3.7,3.52-5.7,5.1c-4.08,3.23-7.84,6.57-10,11.41s-2.89,10.23-2.75,15.52c.28,10.73,3.59,21.42,9.39,30.46,4.98,7.77,15.44,15.25,11.57,25.62-3.54,9.5-13.68,14.56-19.84,22.11-3.08,3.78-5.21,7.92-5.77,12.81-.15,1.35,1.26,2.49,2.5,2.5,1.48,.02,2.35-1.16,2.5-2.5,1.12-9.92,11.54-15.78,17.85-22.29,3.6-3.71,6.95-8.14,8.17-13.26s-.01-10.13-2.8-14.48-6.55-7.99-9.41-12.3c-3-4.53-5.33-9.47-6.89-14.67-2.85-9.51-4.2-21.88,1.76-30.52,2.94-4.27,7.74-6.85,11.43-10.38,4.09-3.91,6.54-8.99,8.39-14.26,3.71-10.56,6.04-21.6,8.34-32.54,4.51-21.45,8.57-43.73,20.25-62.66,10.22-16.57,25.7-29.6,43.42-37.52,8.81-3.93,18.34-6.58,27.93-7.62,8.44-.92,20.8,.64,25.29-8.56,1.17-2.41,1.59-5.01,1.95-7.64,.43-3.21,.78-6.42,1.04-9.65,.5-6.34,.66-12.71,.46-19.06-.17-5.41,.19-12.14-3.19-16.72-3.13-4.23-8.48-6.29-13.31-7.9-11.02-3.67-23.16-4.07-34.4-1.15-9.77,2.54-18.71,7.48-27.48,12.34s-17.25,9.67-26.85,12c-5.11,1.24-10.23,1.46-15.45,.99-6-.55-11.92-1.51-17.95-.63-9.33,1.35-17.97,6.58-24.09,13.67-3.16,3.65-5.69,7.74-7.53,12.2-1.72,4.17-2.76,8.59-4.48,12.75-1.54,3.72-3.69,7.08-7.41,8.87-2.9,1.39-.37,5.7,2.52,4.32h0Z"/><path class="cls-5" d="M373,194.29c3.33,9.49,7.1,20.26,4.7,30.41-1.18,4.96-3.97,8.93-7.4,12.62s-7.14,7.38-10.16,11.6c-5.9,8.24-9.8,18.02-11.29,28.04-.75,5.02-.98,10.08-.53,15.14,.48,5.47,2.42,11.25,1.12,16.73-1.43,6.04-5.68,11.28-9.02,16.37-3.8,5.8-7.61,11.6-11.41,17.4-1.77,2.7,2.56,5.21,4.32,2.52,3.44-5.25,6.88-10.5,10.32-15.74,3.17-4.84,6.82-9.62,9.12-14.95,1.18-2.73,1.95-5.55,2.05-8.54s-.44-6.2-.93-9.26c-.8-5.04-1.03-10.11-.59-15.2,.86-9.94,4.3-19.66,9.78-27.99,2.83-4.31,6.34-7.95,9.89-11.68,3.75-3.95,7.1-8.17,8.87-13.39,3.94-11.62-.14-24.35-4.02-35.41-.45-1.27-1.71-2.12-3.08-1.75-1.23,.34-2.2,1.8-1.75,3.08h0Z"/><path class="cls-5" d="M336.36,504.58c-1.97,16.41,10.12,29.99,20.9,40.68,5.41,5.37,11.03,10.7,15.28,17.08,4.59,6.88,6.72,14.59,7.35,22.79,.78,10.17,.29,20.5-.89,30.61-.16,1.34,1.26,2.5,2.5,2.5,1.48,0,2.34-1.15,2.5-2.5,1.06-9.09,1.49-18.29,1.08-27.44-.38-8.57-1.82-17.1-5.95-24.71-7.52-13.87-21.31-22.57-30.32-35.26-4.95-6.97-8.51-15.04-7.46-23.75,.16-1.34-1.26-2.5-2.5-2.5-1.49,0-2.34,1.15-2.5,2.5h0Z"/><path class="cls-5" d="M489.85,226.01c.84,14.68,8.43,27.52,17.81,38.44,4.71,5.48,9.9,10.5,15.19,15.41,4.37,4.06,10.03,9.46,8.3,16.09-.81,3.11-3.26,4.56-6.31,5.05-3.91,.63-8.07,.44-12.02,.46-8.73,.06-17.46-.29-26.16-1.05-7.35-.64-14.9-1.99-22.22-.36-7.14,1.6-12.33,6.59-15.21,13.19s-4.52,14.09-5.79,21.23c-1.38,7.79-1.95,15.89,.06,23.63,.49,1.9,1.17,3.71,1.94,5.51,.53,1.24,2.36,1.52,3.42,.9,1.28-.75,1.43-2.17,.9-3.42-2.95-6.89-3.01-14.69-2.02-22,.52-3.82,1.33-7.6,2.24-11.34,.82-3.4,1.66-6.82,2.84-10.12,1.04-2.9,2.44-5.81,4.54-8.1,2.22-2.41,5.04-3.89,8.21-4.63,7-1.62,14.54-.07,21.57,.54,8.7,.74,17.43,1.08,26.16,1,4.13-.04,8.36,.04,12.45-.58,3.55-.53,6.81-2.19,8.78-5.27,3.95-6.2,1.24-13.81-3-19-2.29-2.8-5.05-5.17-7.68-7.63s-5.21-4.99-7.7-7.6c-9.52-9.95-18.3-21.64-20.76-35.51-.29-1.61-.45-3.23-.55-4.86-.18-3.2-5.18-3.22-5,0h0Z"/><path class="cls-5" d="M448.64,360.1c-16.94-8.5-35.48-13.4-53.52-18.96-5.33-1.64-10.66-3.29-15.99-4.93-3.08-.95-4.4,3.87-1.33,4.82,9.31,2.87,18.62,5.74,27.93,8.61,8.83,2.72,17.68,5.39,26.32,8.66,4.79,1.81,9.49,3.82,14.06,6.12,2.87,1.44,5.4-2.87,2.52-4.32h0Z"/><path class="cls-5" d="M445.44,339.63c-5.94-7.27-15.12-10.75-24.17-12.15-9.55-1.48-19.75-1.63-29.24,.3-5.56,1.13-11,3.26-15.53,6.73-1.07,.82-1.64,2.15-.9,3.42,.62,1.05,2.34,1.72,3.42,.9,7.52-5.76,17.04-7.23,26.27-7.37,8.6-.13,17.56,.46,25.61,3.73,4.28,1.73,8.07,4.4,11,7.98,.86,1.05,2.65,.89,3.54,0,1.03-1.03,.86-2.49,0-3.54h0Z"/><path class="cls-5" d="M445.33,363.15c-.69,6.68,1.04,13.62-.55,20.21-.8,3.33-2.7,5.98-4.88,8.55-2.51,2.95-5.04,5.88-7.55,8.82-.88,1.02-1.01,2.53,0,3.54,.9,.9,2.65,1.03,3.54,0,2.66-3.11,5.35-6.19,7.98-9.32,2.48-2.95,4.65-6.07,5.64-9.85,1.89-7.19,.07-14.65,.83-21.94,.14-1.34-1.25-2.5-2.5-2.5-1.47,0-2.36,1.15-2.5,2.5h0Z"/><path class="cls-5" d="M441.41,393.04c-5.13-4.29-11.08-7.15-17.25-9.64s-12.86-5.01-19.35-7.34-13.37-4.58-20.22-6.28c-5.69-1.42-11.49-2.42-17.1-4.12s-11.19-4.32-15.13-8.96c-.87-1.03-2.64-.9-3.54,0-1.02,1.02-.88,2.5,0,3.54,7.56,8.89,19.69,11.02,30.48,13.44,13.7,3.07,26.82,8.08,39.89,13.12,6.54,2.52,13.24,5.23,18.68,9.78,1.03,.87,2.52,1.01,3.54,0,.89-.89,1.04-2.67,0-3.54h0Z"/><path class="cls-5" d="M433.19,401.16c-11.2-2.41-22.49-4.55-33.61-7.3-5.08-1.26-9.95-2.96-14.24-6.03s-7.82-6.76-11.43-10.35c-3.96-3.93-7.64-8.11-10.18-13.13-1.45-2.87-5.77-.34-4.32,2.52,2.38,4.72,5.79,8.85,9.46,12.63s7.52,7.6,11.65,10.9c4.41,3.52,9.3,5.91,14.71,7.47s11.08,2.6,16.62,3.79l20,4.31c3.14,.68,4.48-4.14,1.33-4.82h0Z"/><path class="cls-5" d="M575.81,415.58c-5.64-.35-11.19-1.4-16.58-3.11-5.05-1.61-9.85-3.88-14.73-5.92s-9.94-3.79-15.27-4.4-10.57,.22-15.54,1.9c-5.76,1.95-11.1,4.93-16.23,8.17-1.29,.82-1.75,2.81-.51,3.93,4.59,4.1,10.05,6.84,15.8,8.94,6.05,2.21,12.33,3.92,18.61,5.32,12.4,2.76,25.48,3.77,37.8,.07,6.43-1.93,12.42-5.1,17.46-9.57,1.65-1.46,.32-4.29-1.77-4.27-2.61,.03-5.21,.05-7.82,.08-3.22,.03-3.22,5.03,0,5,2.61-.03,5.21-.05,7.82-.08l-1.77-4.27c-8.08,7.16-19.03,10.27-29.66,10.52-12.47,.3-24.98-2.83-36.74-6.73-5.82-1.93-11.58-4.43-16.19-8.55l-.51,3.93c8.5-5.38,18.02-10.38,28.39-9.48s19.28,6.85,28.85,10c6,1.98,12.27,3.12,18.57,3.51,3.21,.2,3.2-4.8,0-5h0Z"/><path class="cls-5" d="M496.68,379.69c20.99-.15,42,1.36,62.74,4.63,5.86,.92,11.7,1.99,17.52,3.18,1.9,.39,4.24-1.77,2.82-3.67-9.6-12.92-23.47-22.89-39.43-26.04-8.46-1.67-17.27-1.53-25.62,.68-4.08,1.08-8.18,2.62-11.81,4.78s-6.61,5.34-8.3,9.43-2.5,8.7-3.11,13.11-.97,9.28-1.21,13.95c-.49,9.54-.92,19.1-1.1,28.66-.18,9.57-.05,19.15,.74,28.69,.4,4.83,.97,9.64,1.73,14.42,.51,3.25,1.3,7.37-1.91,9.49-3.37,2.23-7.68,1.32-11.35,.52-4.71-1.02-9.41-2.06-14.12-3.09-2.31-.51-4.63-1.02-6.94-1.52-1.28-.28-2.55-.53-3.79,.03-1.16,.52-1.87,1.51-2.31,2.67-.77,2.03-1.15,4.27-1.53,6.4-.42,2.37-.72,4.78-.87,7.18-.14,2.26-.15,4.53-.04,6.8,.15,3.2,5.15,3.22,5,0-.21-4.39,.02-8.79,.82-13.12,.2-1.08,.43-2.15,.69-3.21,.13-.53,.26-1.06,.41-1.59,.05-.16,.19-.45,.18-.62,.02-.07,.04-.14,.06-.2,.09-.26-.11-.15-.61,.33,.04,.19,2.59,.57,2.83,.62,1.2,.26,2.39,.52,3.59,.79,4.55,1,9.1,1.99,13.65,2.99s8.88,2.08,13.28,.9c3.72-1,6.94-3.6,8.01-7.39,1.16-4.11-.14-8.58-.71-12.68-1.25-9.09-1.73-18.28-1.84-27.45s.2-18.53,.6-27.78,.48-18.14,1.97-27.04c.67-4.02,1.42-8.46,3.5-12.02,1.88-3.23,5.19-5.13,8.5-6.65,7.35-3.37,15.61-4.61,23.65-4.11,15.43,.96,29.6,8.97,39.72,20.44,1.18,1.34,2.31,2.72,3.37,4.15l2.82-3.67c-20.93-4.28-42.2-6.88-63.55-7.71-6.01-.23-12.03-.32-18.04-.28-3.22,.02-3.22,5.02,0,5h0Z"/><path class="cls-5" d="M488.67,480.21c-1.78-2.28-3.62-4.5-6.04-6.14-2.62-1.79-5.8-2.4-8.93-2.31s-6.35,.64-9.47,1.14c-3.3,.52-6.55,1.22-9.69,2.37-1.27,.46-2.12,1.7-1.75,3.08,.34,1.22,1.8,2.21,3.08,1.75,5.34-1.95,11.29-2.92,16.95-3.28,2.54-.16,4.96,.05,7.13,1.48s3.67,3.52,5.19,5.47c.83,1.07,2.66,.87,3.54,0,1.05-1.05,.83-2.47,0-3.54h0Z"/><path class="cls-5" d="M453.29,475.32c-6.73,.42-13.5,.13-20.15-1.03-5.15-.9-10.9-2.12-14.66-6.05-3.18-3.33-4-8.47-2.48-12.75,1.71-4.81,6.69-7.71,11.21-9.43,10.06-3.83,21.58-4.57,30.4-11.26,4.36-3.31,8.73-8.76,6.45-14.57-1.8-4.57-6.77-7.1-11.52-7.11-6.45-.01-11.69,4.72-15.75,9.23-4.4,4.9-8.91,10.15-10.57,16.68-.8,3.12,4.03,4.45,4.82,1.33,1.38-5.43,5.12-9.77,8.75-13.88,3.09-3.49,7.23-8.07,12.11-8.35,1.92-.11,3.74,.32,5.37,1.37,1.39,.9,2.34,2.26,2.37,3.82,.06,2.47-1.72,4.6-3.44,6.17-1.87,1.71-4.07,3.04-6.34,4.14-9.54,4.61-20.74,4.87-29.92,10.37-4.63,2.78-8.48,7.09-9.4,12.55s.43,10.61,3.9,14.65c4.06,4.74,10.49,6.6,16.4,7.71,7.39,1.38,14.93,1.86,22.43,1.39,3.2-.2,3.22-5.2,0-5h0Z"/><path class="cls-5" d="M455.68,473.9c-3.19-2.12-6.34-4.31-9.61-6.31s-6.68-3.73-10.44-4.16c-3.44-.39-7.03,.77-8.89,3.84-1.61,2.66-1.55,6.17,.7,8.43s5.81-1.25,3.54-3.54c-.37-.37-.45-.75-.35-1.29,.12-.67,.47-1.33,.97-1.75,1.75-1.46,4.69-.67,6.63,.05,2.56,.94,4.93,2.45,7.2,3.92,2.59,1.68,5.15,3.41,7.73,5.12s5.2-2.55,2.52-4.32h0Z"/><path class="cls-5" d="M393.78,510.83c6.66-4.51,13.84-8.26,21.41-11.03,6.48-2.36,14.82-5.12,21.33-1.4,3.06,1.74,5.34,4.61,8.58,6.08,3.76,1.72,7.76,1.48,11.69,.47,3.69-.95,7.35-2.69,11.17-2.97,1.84-.14,3.57,.07,5.13,1.09,1.66,1.09,3.01,2.74,4.4,4.15,6.89,7.05,13.59,14.3,20.09,21.72l1.77-4.27c-13.19,1.6-26.55,1.89-39.78,.52-6.53-.67-13.02-1.79-19.41-3.33s-12.59-3.57-18.9-5.32c-7.05-1.95-14.27-3.5-21.62-3.58l2.16,3.76c1.78-2.81,5.21-3.87,8.35-4.29,3.95-.52,8.1-.17,12.04,.3,8.43,1.02,16.74,3.68,24.25,7.64,4.33,2.28,8.44,5,12.2,8.13,1.04,.86,2.52,1.02,3.54,0,.89-.89,1.04-2.67,0-3.54-7.45-6.22-15.98-10.97-25.2-14-4.61-1.52-9.35-2.54-14.16-3.16-4.38-.56-8.91-.87-13.3-.29-4.76,.63-9.35,2.48-12.02,6.68-1.04,1.63,.32,3.74,2.16,3.76,13.06,.15,25.31,5.24,37.8,8.38s26.32,4.74,39.64,4.72c7.44-.01,14.87-.5,22.25-1.4,2.16-.26,3.29-2.53,1.77-4.27-5.97-6.81-12.1-13.47-18.4-19.98-2.91-3-5.85-6.78-10.01-8s-8.61,.06-12.62,1.32c-3.47,1.09-7.43,2.7-11.12,1.83s-6-3.9-8.92-5.87c-6.82-4.6-15.65-3.22-23-.82-9.13,2.97-17.83,7.25-25.78,12.63-2.65,1.79-.15,6.13,2.52,4.32h0Z"/><path class="cls-5" d="M399.75,519.2c6.11,13.99,16.77,26.35,30.48,33.32,7.44,3.78,15.66,5.95,24,6.27,7.99,.3,16.75-1.04,23.86-4.89,3.98-2.16,6.71-5.63,8.09-9.93,1.3-4.05,1.39-8.43,1.39-12.64,0-3.22-5-3.22-5,0,0,6.09-.05,13.79-5.77,17.52-3.06,1.99-6.74,3.07-10.27,3.87s-7.32,1.16-11.03,1.11c-14.69-.2-28.42-6.88-38.48-17.43-5.47-5.73-9.78-12.46-12.94-19.71-.54-1.24-2.35-1.52-3.42-.9-1.28,.75-1.44,2.18-.9,3.42h0Z"/><path class="cls-5" d="M440.26,528.87c4.45,3.21,6.12,9.59,3.63,14.5-1.26,2.49-3.29,4.56-5.87,5.69-3.04,1.32-6.48,1.4-9.72,1.77-6.65,.76-13.26,3.11-17.01,9.04-3.44,5.45-3.37,12.6-.89,18.4,2.85,6.68,8.72,11.59,15.05,14.84,2.86,1.47,5.39-2.85,2.52-4.32-5.4-2.77-10.58-6.8-13.03-12.53-2.18-5.08-1.88-11.66,2.17-15.74,4.81-4.85,11.65-4.46,17.9-5.49,6.59-1.09,12.03-5.17,14.23-11.58,2.4-6.99-.6-14.69-6.45-18.91-1.1-.79-2.78-.19-3.42,.9-.74,1.26-.2,2.63,.9,3.42h0Z"/><path class="cls-5" d="M359.42,468.28c2.45,5.43,2.85,11.73,1.38,17.48-.75,2.95-1.98,5.72-3.67,8.25s-3.73,4.55-5.6,6.81c-4.06,4.88-7.11,10.68-4.87,17.13s7.4,10.78,11.2,16c4.55,6.26,8.24,13.14,10.88,20.41,.46,1.27,1.7,2.12,3.08,1.75,1.22-.34,2.21-1.8,1.75-3.08-2.44-6.73-5.64-13.18-9.64-19.12-1.95-2.9-4.1-5.66-6.36-8.34-1.99-2.35-4.02-4.7-5.43-7.46-1.26-2.47-1.63-5.12-.77-7.78s2.68-4.81,4.43-6.85c2.03-2.36,4.16-4.66,5.87-7.28s3.04-5.67,3.86-8.74c1.95-7.23,1.3-14.9-1.78-21.71-.56-1.23-2.34-1.53-3.42-.9-1.27,.74-1.46,2.19-.9,3.42h0Z"/><path class="cls-5" d="M370.77,556.81c14.43,16.25,33.48,29.34,54.31,35.82,5.6,1.75,11.44,2.89,17.32,3.08s11.36-.65,16.8-2.2c10.9-3.11,20.81-8.88,30.4-14.76,10.38-6.36,20.6-12.98,30.66-19.84,9.91-6.76,19.77-13.67,29.22-21.07,4.32-3.39,8.5-6.98,12.23-11.01s7.58-8.55,9.06-13.85c.74-2.67,.7-5.48-.47-8.02-.99-2.15-2.81-3.79-4.79-5.02-3.78-2.34-7.99-3.48-10.85-7.11-6.15-7.81-4.48-18.66-.71-27.09,2.34-5.23,5.33-10.18,8.4-15.01,3.11-4.9,6.45-9.67,10-14.27,1.74-2.25,3.54-4.45,5.38-6.62,.87-1.03,1.01-2.53,0-3.54-.89-.89-2.66-1.04-3.54,0-7.45,8.8-14.17,18.21-19.97,28.17-5.42,9.29-10.16,19.75-8.16,30.75,.84,4.6,2.94,9.11,6.24,12.46,1.6,1.62,3.5,2.9,5.52,3.93s3.95,1.8,5.74,3.02c1.57,1.08,2.69,2.63,2.73,4.59,.05,2.4-1.07,4.69-2.31,6.69-2.73,4.42-6.45,8.3-10.24,11.82-8.27,7.66-17.72,14.1-26.92,20.58-9.89,6.96-19.94,13.69-30.16,20.16-9.6,6.09-19.27,12.37-29.7,16.95s-20.91,6.49-31.85,4.55c-10.81-1.91-21.13-6.49-30.59-11.97s-17.44-11.65-24.87-19.04c-1.84-1.83-3.63-3.73-5.35-5.67-2.14-2.41-5.67,1.14-3.54,3.54h0Z"/><path class="cls-5" d="M582.6,418.75c3.95-8.15,7.9-16.3,11.85-24.45,3.59-7.41,7.38-14.93,8.48-23.19,2.15-16.06-8.33-29.17-17.96-40.76-2.66-3.2-5.36-6.39-8.36-9.28-2.74-2.64-5.76-5-8.34-7.81-4.97-5.41-6.37-12.5-6.35-19.65,.04-14.08,5.18-29.71-2.58-42.72-3.93-6.59-10.68-10.44-17.68-13.06-7.95-2.97-16.43-4.62-24.91-4.98-2.1-.09-4.2-.09-6.3-.02-3.21,.11-3.22,5.11,0,5,8.12-.27,16.19,.68,24.01,2.91,6.82,1.94,14.09,4.65,18.81,10.19,4.27,5.02,5.32,11.92,5.33,18.29,.02,7.14-1.28,14.19-1.61,21.31s.3,14.59,3.82,20.95,10.42,10.93,15.48,16.44c5.1,5.56,10.05,11.51,14.28,17.76,3.86,5.72,7.18,12.17,7.62,19.17,.49,7.78-2.48,15.18-5.74,22.09-3.7,7.85-7.56,15.63-11.35,23.45-.94,1.94-1.88,3.89-2.83,5.83-.59,1.21-.33,2.7,.9,3.42,1.1,.64,2.83,.32,3.42-.9h0Z"/><path class="cls-5" d="M512.26,232.78c-3.28-1.15-4.89-4.75-5.42-7.94-.78-4.62-.05-9.58,.18-14.23,.25-4.99,.51-9.99,.76-14.98,.23-4.64,.13-9.45,1.6-13.9,1.01-3.06-3.81-4.37-4.82-1.33-1.28,3.86-1.41,7.96-1.62,11.99-.22,4.33-.44,8.66-.66,12.98s-.45,8.43-.64,12.64c-.17,3.85-.15,7.89,1.31,11.52s4.13,6.72,7.97,8.07c1.27,.45,2.74-.51,3.08-1.75,.38-1.38-.47-2.63-1.75-3.08h0Z"/><path class="cls-5" d="M508.43,184.6c1.23-1.73,3.19-2.8,5.07-3.68,2.12-1,4.37-1.75,6.63-2.35,4.75-1.26,9.65-1.73,14.56-1.57,9.93,.31,19.62,3.28,28.58,7.45,16.96,7.9,32.46,19.27,45.7,32.43,7.38,7.34,14.09,15.33,20.02,23.89,.77,1.11,2.19,1.62,3.42,.9,1.1-.64,1.67-2.31,.9-3.42-11.17-16.13-24.94-30.3-40.72-41.95-8.02-5.92-16.57-11.26-25.57-15.58-9.6-4.61-19.86-7.98-30.55-8.63-5.84-.35-11.79,.13-17.46,1.61s-11.52,3.62-14.91,8.39c-.78,1.1-.19,2.78,.9,3.42,1.25,.73,2.63,.21,3.42-.9h0Z"/><path class="cls-5" d="M378.29,191.19c-4.41-7.24-8.25-15.23-9.13-23.77-.79-7.67,.73-15.22,3.16-22.46,5.02-14.98,13.64-28.86,15.83-44.72,.61-4.4,.7-8.9-.39-13.24-1.03-4.1-3.22-7.78-6.2-10.76-5.46-5.48-12.91-8.62-20.21-10.78s-14.57-3.36-21.79-5.33c-6.84-1.87-13.69-4.47-19.04-9.28-13.09-11.77-14.29-30.72-13.82-47.13,.07-2.34,.16-4.68,.26-7.02,.13-3.22-4.87-3.21-5,0-.71,17.46-1.16,36.71,9.6,51.56,4.7,6.48,11,10.96,18.37,13.95,6.94,2.82,14.35,4.22,21.62,5.9s14.31,3.5,20.65,7.24c3.27,1.93,6.36,4.39,8.43,7.61,2.23,3.47,3.01,7.52,2.98,11.6-.06,8.01-2.71,15.91-5.61,23.29s-6.42,14.71-9.23,22.23-4.81,15.07-4.82,22.97c0,8.76,2.76,17.17,6.75,24.88,1.02,1.97,2.13,3.9,3.28,5.79,1.67,2.74,6,.23,4.32-2.52h0Z"/><path class="cls-5" d="M786.86,.28c-7.78,9.83-16.36,19.02-25.64,27.44-4.65,4.21-9.47,8.25-14.46,12.05s-9.95,6.87-14.2,11.13-7.12,9.94-8.67,15.93c-.76,2.96-1.27,5.98-1.69,9-.39,2.85-.68,5.81,.12,8.62,1.77,6.22,8.46,8.3,14.12,9.54,6.16,1.36,12.5,1.61,18.78,1.73s12.06,.05,18,.93c3.04,.45,6.05,1.13,8.95,2.16,2.38,.84,4.81,1.95,6.58,3.8,3.68,3.84,1.13,8.74-2.11,11.88-4.23,4.1-10.18,6.42-15.76,8.03-6.08,1.76-12.17,2.2-18.46,2.29s-13,.37-18.88,3.31c-10.02,5.02-16.86,15.69-20.21,26.07-7.5,23.22,.94,47.4,13.7,67.04,1.66,2.56,3.4,5.06,5.2,7.52,.79,1.09,2.17,1.63,3.42,.9,1.08-.63,1.7-2.32,.9-3.42-13.42-18.42-24.65-41.02-20.02-64.43,2.02-10.23,7.02-20.28,15.4-26.76,4.96-3.84,10.74-4.94,16.88-5.15s12.73-.15,19.05-1.47,12.2-3.38,17.44-6.62c4.53-2.81,9.23-7.24,10.13-12.74,2.2-13.39-15.74-16.89-25.39-17.77-11.97-1.1-24.38,.53-36.02-3.1-2.33-.73-5.22-1.62-6.44-3.94-1.16-2.19-.84-5-.52-7.37,.75-5.59,1.85-11.41,4.54-16.43s7.29-8.74,11.93-12.11c5.02-3.66,9.96-7.41,14.72-11.41,9.43-7.92,18.22-16.6,26.24-25.94,2.02-2.35,3.98-4.74,5.91-7.17,.84-1.06,1.03-2.5,0-3.54-.87-.87-2.69-1.06-3.54,0h0Z"/><path class="cls-5" d="M696.45,6.16c.03,8.28,2.43,16.48,6.92,23.44,1.74,2.69,6.07,.19,4.32-2.52-4.03-6.25-6.21-13.47-6.24-20.92-.01-3.22-5.01-3.22-5,0h0Z"/><path class="cls-5" d="M753.12,.69c-6.81,2.45-12.72,6.52-18.51,10.76-6.21,4.55-12.42,9.1-18.63,13.65-5.62,4.12-11.69,8.01-16.5,13.09s-7.44,11.05-8.37,17.79c-1.02,7.37-.19,14.78,.78,22.11,.18,1.34,1.02,2.5,2.5,2.5,1.21,0,2.68-1.15,2.5-2.5-1.55-11.67-3.28-25.45,5.01-35.12,4.23-4.94,9.81-8.57,15.02-12.38,6.1-4.47,12.21-8.95,18.31-13.42s12.13-9.11,19.23-11.66c1.27-.46,2.12-1.7,1.75-3.08-.34-1.23-1.8-2.2-3.08-1.75h0Z"/><path class="cls-5" d="M732.37,50.68c-12.46,8.75-24.41,18.23-35.74,28.4-5.64,5.07-11.13,10.3-16.46,15.7-5.3,5.37-10.57,10.83-15.21,16.79s-8.36,12.72-11.51,19.78c-3.06,6.86-6.21,13.55-10.07,20.02s-7.79,13.05-10.18,20.33-3.31,14.38-3.69,21.71c-.86,16.7,1.55,33.41-.01,50.09-.13,1.35,1.24,2.5,2.5,2.5,1.46,0,2.37-1.15,2.5-2.5,1.39-14.76-.33-29.56-.16-44.34,.08-7.09,.6-14.19,2.26-21.09s4.82-13.57,8.53-19.87,7.53-12.84,10.59-19.71,5.98-13.7,10.23-19.89,9.2-11.42,14.26-16.7,10.45-10.57,15.91-15.61c12.21-11.29,25.16-21.75,38.77-31.3,1.1-.77,1.62-2.19,.9-3.42-.64-1.09-2.31-1.68-3.42-.9h0Z"/><path class="cls-5" d="M695.23,84.06c3.22,0,3.22-5,0-5s-3.22,5,0,5h0Z"/><path class="cls-5" d="M646.04,159.81c11.69,1.5,19.98,12.13,23.4,22.66,2.11,6.49,2.9,13.28,3.21,20.07s.5,14.35-1.06,21.31c-2.48,11.06-8.77,20.7-15.1,29.92s-13.38,18.91-17.53,29.75c-2.39,6.22-4.98,14.53,0,20.18,2.54,2.88,6.47,4.67,9.7,6.63,3.8,2.3,7.61,4.59,11.41,6.89,2.76,1.67,5.28-2.66,2.52-4.32-3.38-2.04-6.76-4.08-10.14-6.12-1.55-.94-3.1-1.87-4.65-2.81-1.4-.84-2.89-1.63-4.15-2.68-4.76-3.93-1.79-11.33,0-16.1,4.05-10.76,11.14-20.11,17.58-29.51s12.8-19.49,15.26-30.86c1.55-7.15,1.49-14.55,1.18-21.83-.3-7.07-1.06-14.22-3.14-21-4.07-13.27-14.08-25.33-28.49-27.18-1.34-.17-2.5,1.27-2.5,2.5,0,1.49,1.15,2.33,2.5,2.5h0Z"/><path class="cls-5" d="M645.97,301.93c2.76-2.32,6.36-3.97,9.97-4.28,3.19-.28,6.65,.45,8.33,3.43s1.46,7.03,1.48,10.43c.02,4.82,.04,9.64,.06,14.46,.01,3.22,5.01,3.22,5,0-.02-4.32-.04-8.64-.06-12.96-.02-3.63,.13-7.37-.77-10.92-.85-3.33-2.87-6.38-5.99-7.96s-6.9-1.81-10.42-1.17c-4.14,.75-7.94,2.74-11.15,5.43-1.04,.87-.9,2.64,0,3.54,1.02,1.02,2.5,.87,3.54,0h0Z"/><path class="cls-5" d="M671.25,309.43c11.55,.02,23.27-.97,34.58-3.4,4.11-.88,8.3-2.31,11.49-5.14,3.93-3.48,4.49-8.44,3.6-13.36-1.62-8.93-5.53-18.68-13.79-23.38-4.06-2.31-9.22-3-12.78-6.14-2.99-2.63-4.94-7.08-3.66-11.02,.54-1.68,1.89-2.83,3.72-2.56,2.4,.36,3.95,2.38,4.98,4.4,2.69,5.23,3.77,11.6,4.03,17.43,.14,3.2,5.14,3.22,5,0-.25-5.76-1.32-11.55-3.4-16.95-1.86-4.84-5.17-9.62-10.85-9.9-5.39-.26-8.58,4.56-8.86,9.44s2.18,10.01,5.94,13.08c4.06,3.32,9.29,4.12,13.7,6.76,3.83,2.28,6.4,6.07,8.17,10.08,.89,2,1.55,4.12,2.1,6.24,.64,2.44,1.35,5.07,1.11,7.61-.38,4-4,6.21-7.48,7.42-5.46,1.9-11.49,2.58-17.2,3.25-6.77,.79-13.59,1.17-20.41,1.16-3.22,0-3.22,4.99,0,5h0Z"/><path class="cls-5" d="M673.98,306.05c.86-1.31,2.08-2.34,3.15-3.47,1.18-1.25,2.26-2.6,3.37-3.91,2.08-2.46,4.41-5.12,7.6-6.11,6.81-2.11,10.03,5.89,11.78,10.91,.45,1.27,1.71,2.12,3.08,1.75,1.24-.34,2.19-1.8,1.75-3.08-1.38-3.93-2.85-7.99-5.84-11.02s-6.8-4.42-10.91-3.67-7.48,3.66-10.15,6.71c-1.33,1.51-2.56,3.1-3.92,4.57-1.45,1.58-3.04,2.98-4.23,4.8-1.76,2.7,2.56,5.21,4.32,2.52h0Z"/><path class="cls-5" d="M633.47,231.13c6.4-.83,12.79-1.71,19.2-2.49,4.14-.51,11.23-1.02,12.59,4.29,.79,3.12,5.62,1.8,4.82-1.33-1.69-6.64-8.98-8.67-15.03-8.21-3.55,.27-7.09,.85-10.62,1.31l-10.96,1.42c-1.34,.17-2.5,1.02-2.5,2.5,0,1.22,1.15,2.68,2.5,2.5h0Z"/><path class="cls-5" d="M632.19,237.23c11.54,1.46,25.28,4.84,35.15-3.32,1.04-.86,.89-2.64,0-3.54-1.03-1.03-2.49-.86-3.54,0-3.87,3.2-9.15,3.92-14,3.79-5.89-.15-11.78-1.19-17.61-1.93-1.34-.17-2.5,1.27-2.5,2.5,0,1.49,1.15,2.33,2.5,2.5h0Z"/><path class="cls-5" d="M628.61,239.88c2.38,15.62-4.26,30.91-8.18,45.71-2.08,7.85-3.57,15.96-3.16,24.12,.46,9.07,2.6,18.1,5.01,26.83,4.79,17.34,11.58,34.04,17.54,50.99,2.88,8.2,5.51,16.49,8.41,24.68,2.69,7.6,5.77,15.18,10.17,21.97,7.92,12.2,21.81,22.67,37.1,21.09,1.85-.19,3.68-.52,5.46-1.05,3.08-.91,1.77-5.73-1.33-4.82-13.65,4.02-27.62-4.64-35.37-15.48-4.55-6.35-7.74-13.52-10.42-20.83-2.9-7.9-5.4-15.95-8.16-23.9-5.78-16.63-12.42-33-17.42-49.89-2.46-8.31-4.7-16.85-5.66-25.48-.9-8.08-.03-15.96,1.87-23.83,3.61-14.97,10.16-29.73,9.56-45.41-.08-2.02-.3-4.03-.61-6.03-.2-1.34-1.88-2.07-3.08-1.75-1.43,.39-1.95,1.74-1.75,3.08h0Z"/><path class="cls-5" d="M668.3,326.95c-8.92-4.83-21.32-5.44-29.07,2.02-6.48,6.23-8.2,17.45-2.07,24.49,1.78,2.05,4.26,3.59,6.96,4,2.87,.43,5.69-.33,8.22-1.69,4.87-2.6,8.05-7.48,13.16-9.73,4.67-2.06,9.98-2.11,14.98-1.81,5.86,.36,11.69,1.21,17.53,1.72,14.4,1.26,28.87,1.66,43.32,1.25,3.21-.09,3.22-5.09,0-5-11.99,.34-23.98,.13-35.95-.68-5.84-.39-11.67-.94-17.49-1.59-4.9-.55-9.86-1.09-14.8-.69s-10.04,1.8-14.14,4.89c-3.78,2.85-7.37,7.86-12.41,8.43-3.95,.45-6.91-3.12-7.82-6.54s-.24-7.08,1.49-10.18c5.06-9.07,17.39-9.02,25.57-4.59,2.83,1.53,5.36-2.78,2.52-4.32h0Z"/><path class="cls-5" d="M649.73,358.15c6.93,4.16,15.15,4.82,23,3.74,4.2-.58,8.3-1.65,12.35-2.87,3.83-1.15,7.65-2.38,11.37-3.87,4.29-1.71,8.44-3.72,12.24-6.37,1.11-.77,1.62-2.19,.9-3.42-.64-1.1-2.31-1.67-3.42-.9-6.12,4.26-13.09,6.82-20.15,9.03s-15.01,4.42-22.83,3.76c-3.85-.33-7.62-1.44-10.94-3.44-2.77-1.66-5.28,2.66-2.52,4.32h0Z"/><path class="cls-5" d="M670.5,331.68c7.9-5.92,18.14-6.65,27.55-4.76,10.35,2.08,20.39,6.4,29.81,11.06,5.35,2.65,10.55,5.57,15.61,8.74,2.73,1.71,5.25-2.61,2.52-4.32-9.46-5.93-19.45-10.95-29.83-15.04s-21.09-7.45-32.1-6.09c-5.77,.71-11.4,2.57-16.08,6.09-1.08,.81-1.63,2.16-.9,3.42,.62,1.06,2.33,1.71,3.42,.9h0Z"/><path class="cls-5" d="M645.02,358.27c-.89,8.69-1.21,18.47,5.66,24.99,5.57,5.28,13.78,6.92,21.2,5.94,8.86-1.17,16.55-6.17,23.53-11.45,3.78-2.85,7.47-5.82,11.32-8.57,4.1-2.94,8.33-5.71,12.62-8.35,9.74-6,19.84-11.36,29.94-16.72,2.84-1.51,.32-5.83-2.52-4.32-17.01,9.02-33.88,18.2-49.15,30-6.72,5.2-13.6,10.86-21.83,13.46-6.15,1.94-13.4,1.78-19.03-1.61-3.32-2-5.57-5.11-6.56-8.86-1.24-4.71-.67-9.73-.18-14.5,.14-1.35-1.25-2.5-2.5-2.5-1.47,0-2.36,1.15-2.5,2.5h0Z"/><path class="cls-5" d="M698.77,454.4c19.26-8.19,39.01-15.23,59.09-21.11,20.01-5.86,40.47-10.29,59.99-17.71,17.12-6.51,33.71-15.42,46.7-28.54,12.2-12.31,20.26-27.82,27.18-43.53,6.98-15.84,13.05-32.18,22.02-47.05,1.09-1.8,2.22-3.58,3.39-5.32,1.8-2.68-2.53-5.18-4.32-2.52-9.61,14.31-15.98,30.41-22.73,46.18-6.62,15.49-13.74,31.23-24.83,44.1-11.73,13.62-27.41,23.14-43.89,29.94-19,7.84-39.11,12.38-58.85,17.92-20.05,5.62-39.78,12.4-59.04,20.3-2.42,.99-4.84,2.01-7.25,3.03-1.24,.53-1.52,2.36-.9,3.42,.75,1.29,2.17,1.43,3.42,.9h0Z"/><path class="cls-5" d="M860.67,4.26c6.32-.02,11.4,3.81,15.39,8.39,4.78,5.47,8.11,12.05,11.61,18.36,9.01,16.25,18.03,32.5,27.04,48.75s17.95,32.35,26.92,48.53c9.01,16.25,18.03,32.5,27.04,48.75,8.95,16.14,17.91,32.29,26.86,48.43,1.13,2.03,2.25,4.06,3.38,6.09,1.56,2.81,5.88,.3,4.32-2.52-9.11-16.43-18.22-32.85-27.33-49.28-9.09-16.4-18.19-32.79-27.28-49.19-9.14-16.47-18.27-32.94-27.41-49.4-9.09-16.4-18.19-32.79-27.28-49.19-3.81-6.86-7.36-13.98-12.17-20.22-4.09-5.3-9.32-10.28-16.01-11.91-1.66-.4-3.37-.6-5.08-.59-3.22,.01-3.22,5.01,0,5h0Z"/><path class="cls-5" d="M957.62,3.36c4.13-.18,7.36,3.23,10.16,5.83,3.56,3.3,7.03,6.69,10.41,10.18,6.7,6.91,13.03,14.18,18.97,21.76,.83,1.06,2.66,.87,3.54,0,1.05-1.05,.84-2.47,0-3.54-4.85-6.18-9.95-12.16-15.31-17.91-5.29-5.67-10.77-11.3-16.65-16.37-3.13-2.71-6.8-5.13-11.11-4.95-3.21,.14-3.22,5.14,0,5h0Z"/><path class="cls-5" d="M735.03,226.56c8.77-8.43,20.16-13.75,32.16-15.56,5.78-.87,11.81-.85,17.57,.12,7.12,1.2,13.96,4.35,21.3,4.03,8.2-.35,15.68-4.13,22.82-7.86,2.85-1.49,.33-5.81-2.52-4.32-6.18,3.22-12.75,6.73-19.85,7.15s-13.84-2.77-20.8-3.9c-12.47-2.01-25.26-.18-36.77,4.99-6.44,2.89-12.36,6.91-17.45,11.8-2.32,2.23,1.21,5.77,3.54,3.54h0Z"/><path class="cls-5" d="M733.37,229.86c20.59,6.11,43.14,4.12,62.58-4.9,5.42-2.52,10.56-5.61,15.33-9.23,1.07-.82,1.64-2.16,.9-3.42-.62-1.06-2.34-1.72-3.42-.9-16.24,12.33-36.81,18.24-57.12,16.75-5.74-.42-11.41-1.49-16.93-3.13-3.09-.92-4.41,3.91-1.33,4.82h0Z"/><path class="cls-5" d="M714.62,165.89c13.03-10.26,28.87-17.76,45.24-20.69,4.36-.78,8.91-1.02,13.27-.06s8.29,2.74,12.3,4.45c7.89,3.37,15.78,6.77,23.46,10.61,8.64,4.31,17.08,9.18,24.72,15.11l1.77-4.27c-8.6,.87-17.08-1.15-25.57-2.22-8.01-1-16.08-1.41-24.15-1.24-16.12,.34-32.24,2.95-47.63,7.75-8.68,2.71-17.15,6.13-25.29,10.18-2.88,1.43-.35,5.75,2.52,4.32,14.13-7.03,29.26-11.96,44.8-14.73,15.44-2.76,31.29-3.28,46.89-1.61,9.44,1.01,18.89,3.52,28.44,2.55,1.01-.1,1.89-.54,2.28-1.54,.34-.84,.27-2.12-.52-2.73-14.3-11.11-30.78-18.62-47.34-25.71-4.24-1.82-8.47-3.79-12.91-5.11-4.68-1.39-9.55-1.71-14.39-1.16-8.97,1.03-17.78,3.89-26.06,7.43-9.11,3.89-17.58,9.01-25.36,15.13-1.06,.84-.88,2.66,0,3.54,1.05,1.05,2.47,.84,3.54,0h0Z"/><path class="cls-5" d="M736.81,55.89c5.79-5.92,14.29-7.7,22.3-6.65,8.89,1.16,16.62,5.76,23,11.9,7.05,6.8,12.42,15.07,17.62,23.31,6.35,10.07,12.68,20.15,19.02,30.23,12.74,20.25,25.65,40.42,38.17,60.81,6.16,10.03,12.07,20.21,17.6,30.61s10.91,21.02,16.33,31.55,10.7,20.54,15.79,30.94,9.43,20.23,12.63,30.92c.79,2.62,1.49,5.27,2.11,7.94,.73,3.13,5.55,1.81,4.82-1.33-5.26-22.67-16.78-43.28-27.34-63.8-11.02-21.42-21.73-43.02-34.17-63.67-12.62-20.94-25.9-41.49-38.92-62.18-6.59-10.47-13.17-20.93-19.76-31.4-5.45-8.66-10.89-17.46-17.91-24.96-6.52-6.96-14.5-12.66-23.87-14.95-8.56-2.09-18.18-1.59-25.82,3.11-1.87,1.15-3.59,2.54-5.12,4.1-2.25,2.3,1.28,5.84,3.54,3.54h0Z"/><path class="cls-5" d="M919.25,302.55c3.67,7.1,7.18,14.29,9.9,21.81,2.78,7.7,4.58,15.62,5.32,23.77,.78,8.63,.84,17.32,1.08,25.97,.25,8.71,.58,17.42,.71,26.14,.07,4.27,.03,8.55-.24,12.81s-.74,8.61-.87,12.93c-.21,7.14,.8,14.28,3.21,21.02,4.65,12.98,13.85,24.32,26,30.96s27.95,8.81,41.91,5.2c1.69-.44,3.35-.96,4.99-1.56,1.27-.46,2.12-1.7,1.75-3.08-.34-1.22-1.8-2.21-3.08-1.75-12.74,4.65-27.26,4.21-39.63-1.43s-21.57-15.63-26.44-27.88c-2.48-6.24-3.77-12.82-3.74-19.53,.02-4.24,.43-8.46,.75-12.68,.31-4.18,.44-8.35,.42-12.54-.05-8.62-.41-17.24-.66-25.85s-.32-16.91-.89-25.33c-.56-8.2-1.82-16.29-4.29-24.14s-5.64-14.89-9.17-22.01c-.89-1.79-1.79-3.56-2.71-5.34-1.48-2.86-5.79-.33-4.32,2.52h0Z"/><path class="cls-5" d="M942.06,374.08c9.73-13.66,18.02-28.25,26.24-42.84,8.2-14.55,16.37-29.17,25.93-42.89,5.31-7.63,11.07-14.93,17.43-21.72,2.2-2.35-1.33-5.89-3.54-3.54-11.54,12.32-21.11,26.31-29.81,40.74-8.7,14.42-16.59,29.3-25.17,43.79-4.84,8.17-9.89,16.21-15.4,23.94-.78,1.1-.19,2.78,.9,3.42,1.25,.73,2.63,.21,3.42-.9h0Z"/><path class="cls-5" d="M894.32,330.66c5.08,6.12,12.95,10.82,21.14,10.26,7.6-.52,14.9-5.38,17.05-12.9,.89-3.1-3.94-4.42-4.82-1.33-1.58,5.54-7.32,9.12-12.93,9.26-6.73,.17-12.74-3.82-16.9-8.82-.86-1.04-2.64-.89-3.54,0-1.03,1.03-.87,2.49,0,3.54h0Z"/><path class="cls-5" d="M680.67,453.78c2.18,4.66,1.55,9.96,.23,14.77-1.47,5.35-3.8,10.4-5.83,15.55-4.32,10.97-8.08,22.22-10.96,33.66-1.41,5.57-2.49,11.41-1.84,17.17,.54,4.78,2.04,9.39,4.49,13.54,2.46,4.18,5.81,7.8,9.78,10.59,4.23,2.97,9.21,4.83,14.19,6.09,5.4,1.37,10.94,2.14,16.43,3.04,5.92,.97,11.83,1.99,17.76,2.88,5.72,.86,11.49,1.43,17.22,.37,4.86-.89,9.28-3.17,13.08-6.29,7.61-6.26,11.94-15.77,13.39-25.37,1.76-11.62,.03-23.22-1.6-34.75-.81-5.76-1.56-11.54-1.74-17.37s.21-12.2,.29-18.31c.13-10.3-.82-21.18-6.36-30.16-1.28-2.07-2.8-4-4.52-5.72-2.27-2.28-5.81,1.25-3.54,3.54,6.64,6.66,8.88,16.31,9.32,25.43,.28,5.77-.04,11.54-.18,17.31s.06,11.71,.72,17.56c1.25,11.09,3.56,22.11,3.37,33.32-.16,9.49-2.29,19.37-8.52,26.82-2.7,3.23-6.01,5.97-9.89,7.65-4.73,2.05-10,2.17-15.05,1.71-5.53-.5-11.02-1.59-16.5-2.49s-11.11-1.73-16.63-2.76c-9.33-1.75-18.55-4.72-24.6-12.48-2.74-3.51-4.63-7.67-5.55-12.02-1.06-5.01-.47-10.19,.62-15.14,2.45-11.1,6.15-22.05,10.16-32.67,1.91-5.06,4.13-10.01,5.95-15.11s3.12-10.14,2.66-15.34c-.23-2.66-.91-5.13-2.04-7.54-.57-1.22-2.33-1.53-3.42-.9-1.25,.73-1.47,2.19-.9,3.42h0Z"/><path class="cls-5" d="M564.52,614.58c16.1-20.27,35.46-39.14,59.79-49.07,12.14-4.95,25.54-7.9,38.7-6.89,6,.46,11.57,2.37,16.49,5.84,4.43,3.13,8.08,7.37,10.89,11.99,7.71,12.68,8.72,28.02,8.67,42.5-.01,3.22,4.99,3.22,5,0,.04-14.04-.97-28.63-7.35-41.39-5.34-10.69-14.71-19.97-26.57-22.85-6.81-1.65-14.07-1.5-20.99-.73-6.88,.76-13.66,2.28-20.22,4.5-13.16,4.46-25.22,11.47-36.12,20.03-11.97,9.41-22.38,20.64-31.83,32.54-.84,1.06-1.03,2.5,0,3.54,.87,.87,2.69,1.06,3.54,0h0Z"/></g></svg>