<?xml version="1.0" encoding="UTF-8"?><svg id="Layer_8" xmlns="http://www.w3.org/2000/svg" width="624" height="476" viewBox="0 0 624 476"><defs><style>.cls-1{fill:none;}.cls-1,.cls-2{stroke:#000;stroke-miterlimit:10;stroke-width:3px;}.cls-2{fill:#fff;}</style></defs><rect class="cls-1" x="39.85" y="41.95" width="437.94" height="275" rx="71.78" ry="71.78"/><rect class="cls-2" x="56.26" y="52.65" width="404.95" height="254.28" rx="71.78" ry="71.78"/><path class="cls-1" d="M233.85,317.45c3.42,3.84,8.07,9.82,12,18,.85,1.77,3.74,7.79,4.62,12.49,2.92,15.52-13.21,31.22-17.62,35.51-33.79,32.88-126.48,38.35-126.5,41.5-.04,5.72,305.5,6.56,305.5-.5,0-3.83-90-16.07-127-44-11.74-8.86-23.16-23.07-22-33,.75-6.45,2.5-11.47,2.5-11.47,.61-1.74,1.22-3.19,1.95-4.91,1.81-4.33,2.09-5.19,2.59-6.64,.56-1.6,1.3-3.97,1.96-6.98h-38Z"/><path class="cls-2" d="M524.35,428.45c19.33,.33,38.67,.67,58,1,1.4-12.01-3.62-23.56-13-30-1.15-.79-12.35-8.21-25-4-12.35,4.11-20.88,17.58-20,33Z"/><path class="cls-2" d="M550.9,398.01c-.65,3.06-.96,4.61,0,5.65,.58,.62,1.56,1,2.42,.81,2.14-.47,3.4-4.4,2.42-7.26-.59-1.71-2.14-3.5-3.23-3.23-.8,.2-1.07,1.48-1.61,4.03Z"/><path class="cls-2" d="M524.16,422.52c-9.75,1.28-24.52,1.9-40.71-3.35-1.71-.56-3.37-1.74-6.19-2.35-12.87-2.81-21.19,7.48-30.9,10.64-17.06,5.55-30.48-13.48-55-24-13.99-6-35.72-11-68-4"/></svg>