<?xml version="1.0" encoding="UTF-8"?><svg id="Layer_8" xmlns="http://www.w3.org/2000/svg" width="475" height="420" viewBox="0 0 475 420"><defs><style>.cls-1{fill:none;}.cls-1,.cls-2{stroke:#000;stroke-miterlimit:10;stroke-width:3px;}</style></defs><line class="cls-1" x1="20.02" y1="52.6" x2="72.03" y2="52.6"/><line class="cls-1" x1="121.3" y1="52.6" x2="176.05" y2="52.6"/><line class="cls-1" x1="228.06" y1="52.6" x2="280.07" y2="52.6"/><line class="cls-1" x1="327.98" y1="52.6" x2="379.99" y2="52.6"/><line class="cls-1" x1="378.62" y1="89.56" x2="378.62" y2="125.15"/><line class="cls-1" x1="378.62" y1="163.47" x2="378.62" y2="199.06"/><line class="cls-1" x1="378.62" y1="237.38" x2="378.62" y2="272.97"/><line class="cls-1" x1="18.97" y1="310.04" x2="70.98" y2="310.04"/><line class="cls-1" x1="120.26" y1="310.04" x2="175.01" y2="310.04"/><line class="cls-1" x1="227.02" y1="310.04" x2="279.03" y2="310.04"/><line class="cls-1" x1="326.94" y1="310.04" x2="378.95" y2="310.04"/><line class="cls-1" x1="17.28" y1="86.82" x2="17.28" y2="122.41"/><line class="cls-1" x1="17.28" y1="160.73" x2="17.28" y2="196.32"/><line class="cls-1" x1="17.28" y1="234.65" x2="17.28" y2="270.23"/><path class="cls-2" d="M402.11,332.8c1.69,20.02,3.38,40.05,5.07,60.07,1.29-2.92,5.63-11.73,15.78-17.05,14.13-7.41,28.03-2.01,30.09-1.17-16.98-13.95-33.96-27.9-50.93-41.86Z"/></svg>