<?xml version="1.0" encoding="UTF-8"?><svg id="Layer_1" xmlns="http://www.w3.org/2000/svg" width="124" height="124" viewBox="0 0 124 124"><defs><style>.cls-1{fill:none;stroke:#000;stroke-miterlimit:10;stroke-width:3px;}</style></defs><circle class="cls-1" cx="61.75" cy="61.75" r="58.75"/><path class="cls-1" d="M41.41,7.52c3.91,5.02,8.93,11.8,14.36,20.11,4.68,7.16,12.64,19.43,20.11,35.91,5.28,11.66,11.54,28.1,15.8,48.84"/><path class="cls-1" d="M3,54.87c18.82,2.39,34.18,.68,44.35-1.23,9.07-1.7,20.32-3.91,33.26-11.09,11.63-6.45,19.67-14.16,24.64-19.71"/><path class="cls-1" d="M119.94,69.6c-7.56-3.16-23.56-8.57-43.5-5.59-16.07,2.4-27.11,9.12-30.5,11.3-14.92,9.59-22.65,22.01-25.99,28.25"/></svg>