<?xml version="1.0" encoding="UTF-8"?><svg id="Layer_8" xmlns="http://www.w3.org/2000/svg" width="595" height="815" viewBox="0 0 595 815"><defs><style>.cls-1{fill:none;stroke:#000;stroke-miterlimit:10;stroke-width:3px;}</style></defs><rect class="cls-1" x="36.17" y="38.5" width="534" height="742" rx="25.75" ry="25.75"/><rect class="cls-1" x="67.78" y="99.18" width="470.59" height="508.49"/><path class="cls-1" d="M259.17,292.5c-24.36,7.17-48.74-38.76-69-31-13.68,5.23-6.35,27.6-26,44-17.1,14.28-31.05,4.36-46,18-18.4,16.79-20.45,52.96-7,64,5.69,4.67,10.18,1.58,38,2,26.49,.4,29.18,8.69,45,6,18.8-3.19,19.24-13.31,34-14,22.24-1.04,27.43,21.66,47,21,21.45-.72,22.2-30.71,51-35,22.68-3.38,30.89,6.03,47-2,10.34-5.16,21.74-16.41,20-26-1.76-9.68-15.29-8.87-37-25-2.33-1.73-3.86-2.99-28-27-26.93-26.78-30.27-30.42-36-30-15.55,1.15-15.09,29.73-33,35Z"/><path class="cls-1" d="M152.17,339.5c.93-1.73,7.33-13.17,21-16,2.52-.52,12.63-2.45,22,4,11.49,7.9,11.97,21.56,12,23"/><path class="cls-1" d="M281.17,314.5c14.19-5.39,27.64-2.47,32,5,4.69,8.04-2.03,19.8-5,25-4.74,8.3-11.04,13.33-15,16"/><path class="cls-1" d="M329.9,290.23c.44-2.02,2.08-8.2,7.86-12.93,.77-.63,8.84-7.01,19.47-4.56,.87,.2,13.26,3.27,16.42,14.85,2.45,8.96-2.5,16.23-3.17,17.17-6.02,8.53-15.95,8.89-17.02,8.91"/><line class="cls-1" x1="337.17" y1="265.5" x2="328.17" y2="246.5"/><line class="cls-1" x1="362.91" y1="265.5" x2="368.17" y2="236.5"/><line class="cls-1" x1="374.32" y1="276.5" x2="393.34" y2="265.5"/><line class="cls-1" x1="381.17" y1="297.5" x2="401.17" y2="299.5"/><line class="cls-1" x1="371.17" y1="315.5" x2="375.64" y2="326.31"/><g><path d="M133.89,680.62c1.29-.6,2.39,0,2.48,.6,.09,.64-.05,1.06-1.43,1.47-4.32,1.15-10.3,5.43-13.57,7.87-.64,2.12-1.38,4-2.12,4.83-.46,.46-1.52,.51-2.3,.41-.09,.14-.18,.23-.32,.32-1.24,.51-1.89-.83-1.24-1.7,.74-.92,1.79-2.02,3.13-3.27,.37-1.2,1.98-6.85,2.02-9.48,.05-1.43-.51-1.56-1.84-.41-3.27,2.76-12.1,18.17-14.91,28.11-.18,.6-.05,1.24-.14,1.84-.23,1.2-1.29,1.98-2.16,2.16-.55,.09-1.89-.55-1.47-1.7,3.45-9.2,6.99-21.53,9.52-31.84,.14-.55,.83-.28,1.24-.23,.51,0,1.98,.74,1.56,2.39-.32,1.66-4.78,12.19-5.24,13.48-.37,1.29,.09,.83,.6,0,2.39-4.28,9.25-18.08,13.39-17.71,.6,0,2.12,1.61,2.16,3.82,0,1.06-.46,3.86-1.2,6.62,3.45-2.71,7.68-5.52,11.82-7.59Z"/><path d="M138.35,678.78c.28,.32-.14,.69,.14,.87,.64,.46,.87,1.52,.64,2.39,.32,.87-2.39,5.15-3.36,8.79-.46,1.7-.28,3.27,1.01,2.07,4.14-3.68,9.62-7.78,15.6-10.95,.6-.18,1.24,.92,.18,1.38-5.61,2.53-12.79,9.02-15.87,12.79-.92,.74-4.55-.78-3.59-2.35-.37-2.94,4-11.5,3.36-14.72,.69-.64,1.61-.6,1.89-.28Zm.69-8.79c.05-.87,3.04-.97,3.5-1.01,.32,.32,1.33,.92,1.33,1.24s-.97,2.02-1.56,2.12c-1.29,.23-3.31-1.1-3.27-2.35Z"/><path d="M152.47,689.87c-.69,3.68,1.01,5.43,4.09,4.74,4.65-1.06,12.7-11.09,16.65-18.13,.69-.28,1.33,.51,1.06,.97-2.99,5.29-12.56,18.49-18.13,18.59-.46,0,.14,.28-.18,.37-4.09,1.29-6.81-1.84-6.03-6.62,.74-4.46,3.86-8.37,4.28-8.7s.46-.83,.83-1.06c1.89-1.29,3.08-1.47,3.59-.83,.14,.23,.37-.23,.6-.05,.6,.37,1.47,1.2,1.47,1.93,0,.78-.64,1.47-1.33,1.47-.74,0-1.43-.23-1.61-1.06-1.84-.32-4.6,4.78-5.29,8.37Z"/><path d="M173.45,674.96c.28,.05,.55,.05,.83,.05,.74-2.53,1.47-4.78,2.02-6.44,.6-1.75,.69-4.78,.78-5.2s.87-.97,1.47-.97,2.21,1.43,2.21,2.12-1.79,5.94-2.21,6.95c-.23,.6-.97,.32-1.2,.97l-.92,2.62c4.23-.05,9.06-.64,12.65-1.56,.55,.09,.97,.78-.14,1.29-2.53,1.06-8.37,2.16-13.16,2.25-1.7,5.34-3.63,12.24-4.65,17.99-.09,.51,.37,.97,.28,1.24-.23,.55-.55,1.75-1.01,1.75s-1.24-.09-1.24-.69,.18-.97,.23-1.38c.74-5.43,2.58-12.79,4.32-18.91-.14,0-.28-.05-.41-.05-2.21-.14-4.32-.37-6.62-1.38-1.79-.41-1.33-2.3-.05-2.21,1.38,.09,1.61,1.24,6.81,1.56Z"/><path d="M191.39,681.59c-.32,1.01-1.7,2.53-2.07,2.9-1.06,1.38-2.35,5.8-2.48,8.05-.05,.83,.37,.87,1.52,.41,2.25-.87,7.04-5.15,8.6-8.6-.09-.46,.18-1.2,.69-1.29,.32-.05,1.01,0,1.56,.14,.32,.09,.87,1.43,.74,2.3-.05,.18-.51,.28-.74,.46-.28,1.43-1.1,7.36,0,7.87,1.79,.83,11.41-6.67,13.8-9.66,.46,.09,.46,.64,0,1.2-4.28,5.2-12.01,10.58-13.89,10.44-.32-.23-.55-.05-.83-.23-2.81-1.61-2.35-5.57-1.7-7.77,.09-.32,0-.41-.23-.09-2.25,2.94-5.98,7.04-7.68,7.87-1.06,.51-1.47,.55-1.79,.32-.32-.23-.74,.6-1.56,.32-.83-.28-1.66-1.29-1.15-3.22,0-2.58,3.17-10.26,4.28-13.94,1.93-1.06,3.17,1.84,2.94,2.53Z"/><path d="M214.61,678.32c0-.32,.74-.69,1.2-.69s1.89,.74,2.12,1.24c.46,1.01-1.47,5.11-2.39,8.14-.14,.46,.14,.51,.37,.18,1.66-1.98,8.93-8.05,11.13-8.05,.87,0,2.58,1.84,2.58,3.17s-1.1,2.07-2.12,1.89c-.74-.14-1.1-1.89-1.7-1.98-2.81,.37-8,5.06-10.95,8.42-.46,.87-1.06,3.31-1.66,4.19-.6-.09-1.06,.55-1.33,.51-.28-.05-1.38-.92-1.1-1.61,1.47-3.45,4-9.84,4.28-14.45-.23-.05-.41-.64-.41-.97Z"/><path d="M235.41,688.67c-.64,.41-.78,.74-.74,1.47,.14,2.35,1.1,3.4,2.81,3.4,2.16,0,5.29-2.3,7.36-5.98,.37-.05,.87,.09,.64,.87-.69,2.35-3.96,6.26-8,6.86-3.45,.55-5.38-2.71-5.15-5.75,.37-4.6,3.13-10.17,7.59-11.69,.83-.28,1.01-.09,1.24,.05,1.01,.6,3.31,.97,3.4,2.81,.05,.83-.37,1.43-.78,1.79-.09,.09-.74,.09-1.06,.46-1.75,1.79-4.37,3.82-7.32,5.71Zm-.32-2.44c-.32,.87-.05,1.01,.69,.46,3.27-2.3,6.12-4.51,6.17-5.75,0-.46-.51-1.2-.87-1.2-2.16,0-4.74,3.08-5.98,6.49Z"/><path d="M279.06,677.4c0,1.61-.64,3.45-3.22,3.5,.18-.41,.74-3.4,.46-3.31-4.28,1.89-7.22,8.65-8.65,12.56-.32,.92-.23,2.44,.97,.69,2.71-1.98,7.64-9.48,8.42-9.48,3.17,0,4.14,3.13,4.23,7.13,4.6-2.3,9.16-4.42,12.33-6.95,1.38-1.52,2.85-2.39,4-2.39,1.24,0,2.81,.32,3.82,.87,.6,.37,1.01,.74,1.1,1.15,.55-.92,1.1-1.79,1.61-2.71,.83-.6,2.48,.37,2.81,.69s.28,.97,.05,1.43c-.41,.83-1.24,2.35-1.75,2.48-.92,1.98-1.47,3.91-1.7,5.34-.6,3.63,.23,4.51,3.04,3.04,3.08-1.61,8.93-6.07,11.46-9.2,1.2,.05,1.2,1.1,.23,2.02-2.76,2.67-9.71,8.51-13.25,10.08-1.56,.69-4.69,.78-4.37-3.77,.14-1.84,.83-3.86,1.33-5.61,.09-.32-.09-.41-.23-.14-.23,.41-3.91,5.89-6.3,8.51-2.25,2.48-5.89,1.52-5.47-2.76,.18-2.12,.74-4,1.47-5.61-2.85,1.75-6.53,3.45-10.26,5.34-.69,7.18-6.72,22.04-10.49,24.93-.46,.32-.05,.18-.55,.64-.74,.69-1.75,.69-2.53,.69-2.48,0-5.34-1.79-5.34-8.23,0-9.11,8.14-14.26,16.65-18.63-.14-3.4-1.15-6.35-2.44-4.69-2.3,2.94-5.25,5.75-5.93,6.21-.46,2.07-3.04,3.96-3.96,3.96-1.56,0-1.93-1.98-1.15-4.37,1.38-7.08,7.91-17.57,10.44-15.73,2.62-.55,3.17,1.2,3.17,2.35Zm-.18,14.08c-7.64,4-14.77,8.92-14.77,16.65,0,3.22,.87,5.11,2.02,6.44,.23,.09,.97,.18,1.56,.18,4.69,0,10.58-16.24,11.18-23.28Zm22.82-8.97h-.28c-.74,0-1.43-1.33-3.5-1.33-.55,0-1.38,.37-1.93,.92-1.89,1.89-3.17,5.01-3.5,8.37-.23,2.39,.32,2.53,1.29,1.79,1.84-1.38,5.11-5.43,7.91-9.75Z"/><path d="M331.36,684.63c1.38-6.81,3.63-14.12,6.39-18.45,.23-1.56,1.15-1.79,1.66-1.79s1.43,1.75,1.43,3.45c0,.83-.23,3.73-1.43,6.07-.83,2.94-3.22,6.67-6.12,10.26-.51,2.48-.83,4.97-.83,7.04,0,2.44,.64,3.27,2.85,1.98,5.43-3.17,8.69-8.79,8.88-8.97s.46-.46,.69-.46,.46,.09,.41,.55c-.05,.46-.97,1.7-1.15,1.98-2.12,3.68-8,9.85-11.32,9.85-2.07,0-2.25-2.07-2.39-4.88,0-.46,.18-.18,.18-.37s-.28-.41-.23-.64c.14-1.01,.28-2.07,.46-3.13-3.54,4.09-7.41,7.73-9.75,9.52-3.91,3.13-4.51-1.1-3.91-3.45-.09-5.52,6.49-24.01,10.35-31.42,.51-.23,1.52-.37,1.89,.14,.87,.28,.64,2.58-.32,3.5-1.1,2.39-2.3,6.85-3.68,6.9-2.21,4.65-5.89,14.4-6.39,20.61-.14,1.75-.18,3.59,2.58,1.1,2.67-1.93,6.39-5.15,9.75-9.39Zm2.81-4c1.98-3.13,3.59-6.76,4.51-10.72,.23-1.01-.14-.64-.74,.37-.92,1.52-2.53,5.75-3.77,10.35Z"/><path d="M366.09,684.26c-2.39,2.85-9.89,10.35-17.11,10.9-4.32,1.47-5.29-2.9-5.11-5.15,.37-4.6,3.96-9.38,8.24-12.15,.74-.46,1.01-.09,1.24,.05,.23,.14,.37-.28,.74-.28,.92,0,2.44,2.58,2.53,4.14,.05,.83-.32,1.38-.74,1.75-.09,.09,.05,.55-.28,.92-1.61,1.98-4.55,4.46-9.02,6.9,.28,2.39,2.07,2.35,5.66,1.15,3.96-1.29,9.11-4.55,13.2-9.11,.37-.05,1.33,.05,.64,.87Zm-19.51,5.15c2.9-1.38,8.1-5.25,8.19-8.1,0-.46-1.33-1.24-1.7-1.24-2.12,0-5.89,4.65-6.49,9.34Z"/><path d="M367.75,678.32c0-.32,.74-.69,1.2-.69s1.89,.74,2.12,1.24c.46,1.01-1.47,5.11-2.39,8.14-.14,.46,.14,.51,.37,.18,1.66-1.98,8.93-8.05,11.13-8.05,.87,0,2.58,1.84,2.58,3.17s-1.1,2.07-2.12,1.89c-.74-.14-1.1-1.89-1.7-1.98-2.81,.37-8,5.06-10.95,8.42-.46,.87-1.06,3.31-1.66,4.19-.6-.09-1.06,.55-1.33,.51-.28-.05-1.38-.92-1.1-1.61,1.47-3.45,4-9.84,4.28-14.45-.23-.05-.41-.64-.41-.97Z"/><path d="M391.39,678.83c.51,.09,1.47,.55,1.01,1.38-1.33,2.53-4.14,6.9-4.88,11.13-.28,1.52,.32,1.2,.83,.64,.51-.64,8.23-9.57,9.98-9.57,1.89,0,2.99,5.24,2.58,10.63,.92-.64,1.84-1.01,2.67-1.06,1.15,0,2.12,.92,2.25,2.12,.14,.83-.32,1.56-.87,1.75-.55,.18-.92-.23-1.79-.74-.69,.05-1.66,.55-2.71,1.38-1.1,5.61-3.86,13.62-6.39,16.01-.78,.78-1.84-.41-2.07-1.61-.87-4.19,2.76-11.78,6.72-15.96,.41-3.22,.37-6.35-.18-8.97-.18-.78-.6-1.1-1.52-.46-5.2,3.63-7.87,11-10.44,11.32-1.01,.14-2.02-.97-1.98-2.16,0-.32,.23-.69,.28-1.06,.37-4.28,2.62-9.57,4.97-14.35,.23-.46,1.06-.51,1.56-.41Zm6.62,20.01c-2.12,2.48-4.05,5.98-4.14,9.66-.05,.87,.18,1.01,.6,.23,1.56-2.94,2.76-6.4,3.54-9.89Z"/><path d="M430.03,679.66c-1.43,.18-2.67-1.1-2.48-2.12,.46-2.85,9.2-8.74,12.61-8.74,2.02,0,4,2.12,4,5.06,0,4-4.92,11.68-7.59,15.23-.6,.78-.55,.92,.18,.78,1.79-.37,5.11-.87,7.59-.87,1.43,0,2.53,1.7,2.39,2.35-.05,.23-.05,.46,.09,.55,.14,.09,.41,.32,.41,.55s-.74,.74-1.01,.55c-3.13-2.02-8.51-1.24-10.95-.78-.51,.09-1.06,.18-1.66,.92-.74,.88-2.07,2.39-2.44,2.67-.92,.74-3.27-.09-3.27-1.61,0-.18-.14-.87,.69-1.1,4-1.01,13.48-13.39,13.48-18.91,0-2.53-1.1-2.94-2.07-2.94-2.02,0-9.34,5.06-9.34,6.72,0,.37-.18,1.66-.64,1.7Z"/><path d="M469.78,670.87c2.16,1.52,4.92,4.46,4.92,8.19,0,9.57-12.19,15.55-16.79,15.55-1.84,0-4.55-2.21-4.55-4.6,0-4.92,4.69-11.64,9.02-16.1-.05,0-.09,0-.09-.05-.74-.55,.09-2.07,.55-2.67,.83-1.1,2.35-1.33,4.09-1.38,.78-.51,1.43-.83,1.84-.83,.51,0,.6,.14,.92-.18,.18-.18,.74,.14,.83,.37,.09,.23,.28,1.38-.32,1.56l-.41,.14Zm-2.25,1.24c-3.73,2.58-8.28,7.96-10.58,12.7-1.1,2.3-1.52,4.05-1.52,4.46,0,1.98,1.52,3.45,2.81,3.45,5.89,0,14.12-7.13,14.12-13.53,0-4.37-2.35-6.85-4.83-7.08Z"/><path d="M482.65,679.06c-1.43,.18-2.71-1.7-2.53-2.71,.46-2.85,11.09-5.11,14.81-5.11,2.02,0,5.06,.83,5.06,3.77,0,4.79-9.57,13.25-14.63,17.57-.46,.37-.28,.69,.46,.74,3.04,.18,8.65-1.52,11.13-1.52,1.43,0,1.84,.32,1.89,.87,0,.23,.09,.37,.09,.55,0,.32-.37,1.15-1.29,1.43-.23,.05-.83-.41-1.15-.41-3.17,.09-6.3,.83-8.74,1.29-.51,.09-1.01,.46-1.98,.41-.69-.05-.92-.05-1.29,.23-1.01-.09-3.5-1.06-3.5-2.58,0-.18,.14-1.2,.92-1.56,4.46-2.07,15.73-12.05,15.73-16.01,0-2.53-1.75-2.71-2.71-2.71-5.38,0-11.64,2.39-11.64,4.05,0,.37-.18,1.66-.64,1.7Zm22.4,2.62c-1.52-.28-2.67-1.1-2.48-2.12,.46-2.85,9.2-8.74,12.61-8.74,2.02,0,3.63,1.75,3.63,4.69,0,4-7.5,11.87-10.17,15.41-.6,.78-.69,1.47,.55,1.38,1.84-.14,5.93,.23,8.74,.87,1.38,.32,1.61,1.24,1.47,1.89-.05,.23-.05,.46,.09,.55,.14,.09,.05,.18,.05,.41s-.74,.74-1.01,.55c-2.67-1.7-7.91-2.25-11.64-2.16-.92,.74-3.27-.09-3.27-1.61,0-.18,1.24-2.07,2.85-2.48,2.39-2.07,10.17-11.92,10.17-14.54,0-1.47-.64-2.53-1.61-2.53-3.59,0-8.88,4.88-8.88,6.53,.41,1.38,.14,2.12-1.1,1.89Z"/></g><path class="cls-1" d="M67.67,594c32.3-86.68,63.08-106.37,85.44-108,43.23-3.15,65.88,60.38,111.07,55,38.37-4.56,36.45-52.04,97.19-82,6.71-3.31,66.1-31.73,106.8-9,34.52,19.28,34.34,63.48,44.86,63,8.2-.38,18.18-27.71,25.63-148"/></svg>