<?xml version="1.0" encoding="UTF-8"?><svg id="Layer_1" xmlns="http://www.w3.org/2000/svg" width="124" height="124" viewBox="0 0 124 124"><path d="M103.08,3c9.88,0,17.92,8.04,17.92,17.92V103.08c0,9.88-8.04,17.92-17.92,17.92H20.92c-9.88,0-17.92-8.04-17.92-17.92V20.92C3,11.04,11.04,3,20.92,3H103.08m0-3H20.92C9.37,0,0,9.37,0,20.92V103.08c0,11.55,9.37,20.92,20.92,20.92H103.08c11.55,0,20.92-9.37,20.92-20.92V20.92c0-11.55-9.37-20.92-20.92-20.92h0Z"/><path d="M62.5,33c15.71,0,28.5,12.79,28.5,28.5s-12.79,28.5-28.5,28.5-28.5-12.79-28.5-28.5,12.79-28.5,28.5-28.5m0-3c-17.4,0-31.5,14.1-31.5,31.5s14.1,31.5,31.5,31.5,31.5-14.1,31.5-31.5-14.1-31.5-31.5-31.5h0Z"/><path d="M99.63,16.3h0c.66,0,1.32,.18,1.9,.51,1.8,1.04,2.43,3.33,1.4,5.11-.66,1.14-1.9,1.85-3.23,1.85-.66,0-1.32-.18-1.9-.51-1.8-1.04-2.43-3.33-1.4-5.11,.66-1.14,1.9-1.85,3.23-1.85m0-2c-1.98,0-3.91,1.02-4.96,2.85-1.58,2.74-.63,6.25,2.13,7.84,.91,.53,1.91,.78,2.9,.78,1.98,0,3.91-1.02,4.96-2.85,1.58-2.74,.63-6.25-2.13-7.84-.91-.53-1.91-.78-2.9-.78h0Z"/></svg>