<?xml version="1.0" encoding="UTF-8"?><svg id="Layer_1" xmlns="http://www.w3.org/2000/svg" width="124" height="124" viewBox="0 0 124 124"><defs><style>.cls-1{fill:none;stroke:#000;stroke-miterlimit:10;stroke-width:3px;}</style></defs><path d="M103.08,3c9.88,0,17.92,8.04,17.92,17.92V103.08c0,9.88-8.04,17.92-17.92,17.92H20.92c-9.88,0-17.92-8.04-17.92-17.92V20.92C3,11.04,11.04,3,20.92,3H103.08M103.08,0H20.92C9.37,0,0,9.37,0,20.92V103.08C0,114.63,9.37,124,20.92,124H103.08c11.55,0,20.92-9.37,20.92-20.92V20.92C124,9.37,114.63,0,103.08,0h0Z"/><path d="M33.5,25c4.14,0,7.5,3.14,7.5,7s-3.36,7-7.5,7-7.5-3.14-7.5-7,3.36-7,7.5-7m0-3c-5.8,0-10.5,4.48-10.5,10s4.7,10,10.5,10,10.5-4.48,10.5-10-4.7-10-10.5-10h0Z"/><path d="M39,52v49h-12V52h12m3-3H24v55h18V49h0Z"/><path class="cls-1" d="M52.32,49h15.88l.31,6.5c1.28-1.53,4.9-5.48,11-7,1-.25,10.35-2.42,18,4,5.73,4.81,6.78,11.32,7,13v37.5h-17.17l.17-33.5c-1.07-4.19-4.88-7.09-9.09-7-4.44,.09-8.27,3.48-8.91,8l-.44,32.5h-16.74V49Z"/></svg>