<?xml version="1.0" encoding="UTF-8"?><svg id="Layer_1" xmlns="http://www.w3.org/2000/svg" width="124" height="123.5" viewBox="0 0 124 123.5"><defs><style>.cls-1{stroke-width:3px;}.cls-1,.cls-2{fill:none;stroke:#000;stroke-miterlimit:10;}.cls-2{stroke-width:2px;}</style></defs><path d="M114.51,19c3.03,0,5.49,2.46,5.49,5.49V105.97c0,3.03-2.46,5.49-5.49,5.49H9.64c-3.03,0-5.49-2.46-5.49-5.49V24.49c0-3.03,2.46-5.49,5.49-5.49H114.51m0-3H9.64c-4.69,0-8.49,3.8-8.49,8.49V105.97c0,4.69,3.8,8.49,8.49,8.49H114.51c4.69,0,8.49-3.8,8.49-8.49V24.49c0-4.69-3.8-8.49-8.49-8.49h0Z"/><path class="cls-1" d="M8.53,17.25c9.08,22.79,21.06,37.32,29.24,45.64,12.18,12.39,18.75,13.93,23.07,14.03,3.5,.09,11.14-.62,25.41-14.85,8.27-8.24,20.27-22.52,29.36-44.83"/><path class="cls-2" d="M5.46,110.16c6.06-1.73,18.4-6.17,29.28-17.57,7.18-7.51,11.08-15.27,13.18-20.5"/><path class="cls-2" d="M119.12,109.64c-6.06-1.73-18.4-6.17-29.28-17.57-7.18-7.51-11.08-15.27-13.18-20.5"/></svg>