<?xml version="1.0" encoding="UTF-8"?><svg id="Layer_8" xmlns="http://www.w3.org/2000/svg" width="585" height="605" viewBox="0 0 585 605"><defs><style>.cls-1{fill:none;stroke:#3e2527;stroke-miterlimit:10;stroke-width:3px;}</style></defs><circle class="cls-1" cx="292.5" cy="293.44" r="290"/><path d="M413.87,245.96c8.72-9.13,14.21-16.56,16.45-22.29,2.24-5.73,2.13-12.52-.33-20.39l5.52-2.34c.39,.92,1.05,2.22,1.97,3.89,.92,1.67,1.78,3.43,2.56,5.27,3.9,9.2,5.3,19.04,4.2,29.5-1.1,10.46-7.41,21.6-18.9,33.43l-91.28,94.43,44.75,.25c21.14,.16,62.68,.03,124.64-.38l5.62,13.26-218.66-.8-2.11-4.97,125.57-128.84Z"/><path d="M147.84,219.25v157.5h-12V214.75c0-9.6-2.05-17-6.15-22.2-4.1-5.2-11.05-7.8-20.85-7.8h-3v-6h19.5c9.2,0,17,1.5,23.4,4.5,6.4,3,12.1,7.5,17.1,13.5l105,130.5V178.75h12v201h-6L147.84,219.25Z"/></svg>